<svg width="508" height="267" viewBox="0 0 508 267" fill="none" xmlns="http://www.w3.org/2000/svg">
<path d="M431 131H507" stroke="white" stroke-width="3"/>
<path d="M73 222L279 222" stroke="white" stroke-width="3"/>
<path d="M478 138.086C478 172.995 472.288 198.835 460.863 215.605C449.529 232.376 432.029 240.762 408.364 240.762C385.424 240.762 368.106 232.103 356.409 214.785C344.803 197.467 339 171.901 339 138.086C339 102.812 344.667 76.8359 356.001 60.1562C367.335 43.3854 384.789 35 408.364 35C431.304 35 448.622 43.75 460.319 61.25C472.106 78.75 478 104.362 478 138.086ZM380.754 138.086C380.754 162.604 382.84 180.195 387.011 190.859C391.272 201.432 398.39 206.719 408.364 206.719C418.157 206.719 425.229 201.341 429.581 190.586C433.933 179.831 436.11 162.331 436.11 138.086C436.11 113.568 433.888 95.9766 429.445 85.3125C425.093 74.5573 418.066 69.1797 408.364 69.1797C398.481 69.1797 391.408 74.5573 387.147 85.3125C382.885 95.9766 380.754 113.568 380.754 138.086Z" fill="#112E51"/>
<path d="M174.664 200.457H150.602V241.883H109.312V200.457H24V171.062L111.637 42H150.602V167.645H174.664V200.457ZM109.312 167.645V133.738C109.312 128.087 109.54 119.884 109.996 109.129C110.452 98.3737 110.816 92.1302 111.09 90.3984H109.996C106.624 97.8724 102.568 105.164 97.8281 112.273L61.1875 167.645H109.312Z" fill="#112E51"/>
<path d="M181 218H173V226H181V218Z" fill="#4AA564"/>
<path d="M20 54H129.5V179H361V13" stroke="white" stroke-width="3"/>
<path d="M258 174H248V184H258V174Z" fill="#24AB40"/>
<path d="M326.805 138.086C326.805 172.995 321.062 198.835 309.578 215.605C298.185 232.376 280.594 240.762 256.805 240.762C233.745 240.762 216.336 232.103 204.578 214.785C192.911 197.467 187.078 171.901 187.078 138.086C187.078 102.812 192.775 76.8359 204.168 60.1562C215.561 43.3854 233.107 35 256.805 35C279.865 35 297.273 43.75 309.031 61.25C320.88 78.75 326.805 104.362 326.805 138.086ZM229.051 138.086C229.051 162.604 231.147 180.195 235.34 190.859C239.624 201.432 246.779 206.719 256.805 206.719C266.648 206.719 273.758 201.341 278.133 190.586C282.508 179.831 284.695 162.331 284.695 138.086C284.695 113.568 282.462 95.9766 277.996 85.3125C273.621 74.5573 266.557 69.1797 256.805 69.1797C246.87 69.1797 239.76 74.5573 235.477 85.3125C231.193 95.9766 229.051 113.568 229.051 138.086Z" fill="#112E51"/>
<path d="M360.499 34C360.219 34 359.982 33.9019 359.787 33.7069L349.689 23.9084C349.581 23.8222 349.432 23.681 349.244 23.4848C349.055 23.2898 348.756 22.9345 348.346 22.4188C347.935 21.9032 347.569 21.3744 347.245 20.8324C346.922 20.2904 346.634 19.6336 346.381 18.8631C346.126 18.0926 346 17.3449 346 16.6175C346 14.2307 346.685 12.3643 348.056 11.0183C349.425 9.67238 351.318 9 353.736 9C354.404 9 355.087 9.11725 355.783 9.34935C356.479 9.58265 357.126 9.8973 357.725 10.2933C358.324 10.6893 358.839 11.0614 359.271 11.4084C359.702 11.7553 360.112 12.125 360.501 12.515C360.888 12.1238 361.299 11.7553 361.731 11.4084C362.162 11.0614 362.677 10.6893 363.276 10.2933C363.874 9.8973 364.522 9.58265 365.218 9.34935C365.913 9.11725 366.596 9 367.264 9C369.68 9 371.574 9.67238 372.944 11.0183C374.315 12.3643 375 14.2307 375 16.6175C375 19.0151 373.764 21.4569 371.295 23.9419L361.213 33.7081C361.018 33.9031 360.78 34 360.499 34Z" fill="#E31C3D"/>
<path d="M361 131H436" stroke="white" stroke-width="3"/>
<path d="M55.6646 232C55.0612 232 54.8248 231.58 55.1392 231.069L68.4289 209.385C68.7434 208.872 69.2566 208.872 69.5711 209.385L82.8608 231.069C83.1752 231.582 82.9388 232 82.3354 232H55.6646Z" fill="#FDB81E"/>
<circle cx="494.5" cy="131.5" r="12.5" fill="#02BFE7"/>
<path d="M32 51.7954L32 55.2046C32 55.6784 31.8342 56.0804 31.5027 56.4119C31.1712 56.7434 30.7692 56.9092 30.2955 56.9092H22.9097L22.9097 64.2954C22.9097 64.7692 22.7439 65.1712 22.4124 65.5027C22.0809 65.8342 21.6789 66 21.2052 66H17.7948C17.3211 66 16.9191 65.8342 16.5876 65.5027C16.2561 65.1712 16.0903 64.7692 16.0903 64.2954L16.0903 56.9092H8.70452C8.23075 56.9092 7.82877 56.7434 7.49726 56.4119C7.16575 56.0817 7 55.6784 7 55.2046L7 51.7954C7 51.3216 7.16575 50.9196 7.49726 50.5881C7.82877 50.2566 8.23075 50.0908 8.70452 50.0908H16.0903V42.7046C16.0903 42.2308 16.2561 41.8288 16.5876 41.4973C16.9191 41.1658 17.3224 41 17.7948 41H21.2039C21.6776 41 22.0796 41.1658 22.4111 41.4973C22.7426 41.8288 22.9084 42.2308 22.9084 42.7046V50.0908H30.2942C30.7679 50.0908 31.1699 50.2566 31.5014 50.5881C31.8342 50.9196 32 51.3229 32 51.7954Z" fill="#2E8540"/>
<path d="M366 83H356V93H366V83Z" fill="#F9C642"/>
<path d="M134 174H125V183H134V174Z" fill="#E31C3D"/>
<path d="M134 50H125V59H134V50Z" fill="#02BFE7"/>
</svg>
