<svg width="510" height="264" viewBox="0 0 510 264" fill="none" xmlns="http://www.w3.org/2000/svg">
<path d="M258 64H261V215H258V64Z" fill="white"/>
<rect x="363" y="247" width="3.00002" height="220" transform="rotate(-180 363 247)" fill="white"/>
<path d="M69 226L69 223L159 223L159 226L69 226Z" fill="white"/>
<path d="M69.56 158.576L96.104 114.968C101.792 103.592 107.48 92.216 112.536 81.156H113.8C113.168 93.796 111.904 113.072 111.904 126.028V158.576H69.56ZM111.904 242H155.196V193.968H178.264V158.576H155.196V41.34H98.316L25.004 162.052V193.968H111.904V242Z" fill="#112E51"/>
<path d="M136 64H28V67H133V138H205V135H136V64Z" fill="white"/>
<path d="M258.424 245.792C301.4 245.792 330.156 209.136 330.156 140.88C330.156 72.624 301.4 37.548 258.424 37.548C215.448 37.548 186.692 72.624 186.692 140.88C186.692 209.136 215.448 245.792 258.424 245.792ZM258.424 209.768C242.94 209.768 230.616 195.548 230.616 140.88C230.616 85.896 242.94 73.572 258.424 73.572C274.224 73.572 286.232 85.896 286.232 140.88C286.232 195.548 274.224 209.768 258.424 209.768Z" fill="#112E51"/>
<path d="M258 197H261V224H258V197Z" fill="white"/>
<path d="M383.56 158.576L410.104 114.968C415.792 103.592 421.48 92.216 426.536 81.156H427.8C427.168 93.796 425.904 113.072 425.904 126.028V158.576H383.56ZM425.904 242H469.196V193.968H492.264V158.576H469.196V41.34H412.316L339.004 162.052V193.968H425.904V242Z" fill="#112E51"/>
<path d="M157 226L157 223L362 223L362 226L157 226Z" fill="white"/>
<path d="M360 236C358.895 236 358 236.895 358 238V245H351C349.895 245 349 245.895 349 247V250C349 251.105 349.895 252 351 252H358V259C358 260.105 358.895 261 360 261H363C364.105 261 365 260.105 365 259V252H372C373.105 252 374 251.105 374 250V247C374 245.895 373.105 245 372 245H365V238C365 236.895 364.105 236 363 236H360Z" fill="#2E8540"/>
<path d="M68.4994 238C68.2187 238 67.982 237.902 67.7869 237.707L57.6888 227.908C57.5805 227.822 57.4318 227.681 57.2439 227.485C57.0548 227.29 56.7562 226.934 56.3458 226.419C55.9354 225.903 55.569 225.374 55.2455 224.832C54.9219 224.29 54.634 223.634 54.3807 222.863C54.1261 222.093 54 221.345 54 220.617C54 218.231 54.6852 216.364 56.0555 215.018C57.4247 213.672 59.3185 213 61.7356 213C62.4042 213 63.087 213.117 63.7828 213.349C64.4787 213.583 65.1258 213.897 65.7254 214.293C66.3237 214.689 66.8388 215.061 67.2706 215.408C67.7024 215.755 68.1116 216.125 68.5006 216.515C68.8884 216.124 69.2988 215.755 69.7306 215.408C70.1624 215.061 70.6775 214.689 71.2758 214.293C71.8742 213.897 72.5225 213.583 73.2183 213.349C73.913 213.117 74.5958 213 75.2644 213C77.6803 213 79.5741 213.672 80.9445 215.018C82.3148 216.364 83 218.231 83 220.617C83 223.015 81.7641 225.457 79.2946 227.942L69.2131 237.708C69.018 237.903 68.7801 238 68.4994 238Z" fill="#E31C3D"/>
<ellipse cx="27.5" cy="66.1723" rx="12.5" ry="12.1723" fill="#1E72B7"/>
<rect x="492" y="61" width="3.00001" height="132" transform="rotate(90 492 61)" fill="white"/>
<path d="M477.665 70C477.061 70 476.825 69.5987 477.139 69.1092L490.429 48.368C490.743 47.8773 491.257 47.8773 491.571 48.368L504.861 69.1092C505.175 69.5998 504.939 70 504.335 70H477.665Z" fill="#FDB81E"/>
<path d="M365 88H358V95H365V88Z" fill="#1E72B7"/>
<path d="M185 221.258H178V228.258H185V221.258Z" fill="#1E72B7"/>
<path d="M365 23H358V30H365V23Z" fill="#E31C3D"/>
<path d="M263 98H256V105H263V98Z" fill="#2E8540"/>
<path d="M138 132H131V139H138V132Z" fill="#FDB81E"/>
<path d="M138 62H131V69H138V62Z" fill="#E31C3D"/>
</svg>
