<svg width="82" height="82" viewBox="0 0 82 82" fill="none" xmlns="http://www.w3.org/2000/svg">
<g clip-path="url(#clip0)">
<ellipse cx="32.9118" cy="27.859" rx="3.9412" ry="3.90601" fill="#E1F3F8"/>
<ellipse cx="49.6619" cy="41.5301" rx="3.9412" ry="3.90601" fill="#E1F3F8"/>
<ellipse cx="33.1517" cy="52.9258" rx="3.9412" ry="3.90601" fill="#E1F3F8"/>
<path d="M49.1667 36.0577C46.126 36.0577 43.625 38.3702 43.3552 41.3186C41.5177 41.2247 38.8635 40.7477 36.8802 39.0278C35.4 37.7415 34.5727 36.0038 34.23 33.6841C36.8185 33.0915 38.7895 30.5808 38.7895 27.842C38.7895 24.6478 36.1177 21.9998 32.8947 21.9998C29.6718 21.9998 27 24.6478 27 27.842C27 30.6386 29.0052 33.1493 31.6667 33.6841V46.8288C29.0052 47.3636 27 49.8745 27 52.6712C27 55.8653 29.6718 58.513 32.8947 58.513C36.1177 58.513 38.7895 55.8653 38.7895 52.6712C38.7895 49.8745 36.6615 47.3636 34 46.8288V39.3385C34.401 39.8588 34.8531 40.343 35.3562 40.7766C38.0104 43.0674 41.4302 43.5805 43.625 43.6456C44.3906 45.9508 46.5781 47.6202 49.1667 47.6202C52.3896 47.6202 55 45.0331 55 41.8389C55 38.6448 52.3896 36.0577 49.1667 36.0577ZM29.2105 27.842C29.2105 25.9269 30.9624 24.1906 32.8947 24.1906C34.827 24.1906 36.5789 25.9197 36.5789 27.8347C36.5789 29.7498 34.827 31.4933 32.8947 31.4933C30.9624 31.4933 29.2105 29.757 29.2105 27.842ZM36.5789 52.6712C36.5789 54.5862 34.827 56.3222 32.8947 56.3222C30.9624 56.3222 29.2105 54.5862 29.2105 52.6712C29.2105 50.7561 30.9624 49.0198 32.8947 49.0198C34.827 49.0198 36.5789 50.7561 36.5789 52.6712ZM49.1667 45.3077C47.2344 45.3077 45.6667 43.754 45.6667 41.8389C45.6667 39.9239 47.2344 38.3702 49.1667 38.3702C51.099 38.3702 52.6667 39.9239 52.6667 41.8389C52.6667 43.754 51.099 45.3077 49.1667 45.3077Z" fill="#003E73"/>
</g>
<defs>
<clipPath id="clip0">
<rect width="28" height="37" fill="white" transform="translate(27 22)"/>
</clipPath>
</defs>
</svg>
