<svg width="82" height="83" viewBox="0 0 82 83" fill="none" xmlns="http://www.w3.org/2000/svg">
<rect x="29.7747" y="31.3673" width="22" height="22" rx="5" fill="#E1F3F8" stroke="#003E73" stroke-width="2"/>
<path d="M57.6138 30.9886C58.1996 30.4028 58.1996 29.4531 57.6138 28.8673C57.0281 28.2815 56.0783 28.2815 55.4925 28.8673L57.6138 30.9886ZM40.7 45.7811L39.5287 46.7182C39.7952 47.0513 40.191 47.2552 40.617 47.2788C41.043 47.3024 41.4589 47.1435 41.7606 46.8418L40.7 45.7811ZM35.8578 37.3273C35.3403 36.6804 34.3964 36.5755 33.7495 37.093C33.1026 37.6105 32.9977 38.5545 33.5152 39.2014L35.8578 37.3273ZM41.8713 44.8441L35.8578 37.3273L33.5152 39.2014L39.5287 46.7182L41.8713 44.8441ZM41.7606 46.8418L57.6138 30.9886L55.4925 28.8673L39.6393 44.7205L41.7606 46.8418Z" fill="#003E73"/>
</svg>
