<svg width="83" height="83" viewBox="0 0 83 83" fill="none" xmlns="http://www.w3.org/2000/svg">
<path d="M37.4329 59.1549V52.1084V50.3919C39.3121 50.3919 43.4556 49.609 45.2924 49.2175V56.0833C46.3464 57.7998 49.8997 61.2327 55.6815 61.2327C61.4633 61.2327 64.2337 58.4623 64.8962 57.0771V34.9438C63.9928 32.5046 59.2951 30.6978 55.6815 30.6978C52.7906 30.6978 49.6588 31.5409 48.4543 31.9625V24.4643C47.9424 22.8984 45.3466 19.7666 39.0589 19.7666C32.7713 19.7666 29.8744 22.8984 29.2119 24.4643L28.7602 45.6942C21.3884 45.6942 18.5819 49.9703 18.1001 52.1084V58.0708C18.4916 59.8174 20.8464 63.3106 27.1341 63.3106C33.4218 63.3106 36.6198 60.5401 37.4329 59.1549Z" fill="#E1F3F8"/>
<path d="M30.1852 44.7966C29.4804 44.7124 28.7519 44.6684 28.0071 44.6684V25.0651H30.1852V31.8615C30.1852 34.1853 33.6352 36.2175 38.8973 36.2175C41.2969 36.2175 43.3197 35.7949 44.8103 35.1148C44.5062 35.7209 44.3424 36.3683 44.3424 37.0453V37.5441C42.726 38.0914 40.859 38.3956 38.8973 38.3956C35.3963 38.3956 32.1969 37.4267 30.1852 35.8358V38.3956C30.1852 40.7194 33.6352 42.7516 38.8973 42.7516C41.0545 42.7516 42.9071 42.4101 44.3424 41.847V44.0782C42.726 44.6255 40.859 44.9297 38.8973 44.9297C35.3963 44.9297 32.1969 43.9608 30.1852 42.37V44.7189V44.7966ZM38.4335 49.2804C38.5865 49.2839 38.7411 49.2857 38.8973 49.2857C41.0545 49.2857 42.9071 48.9442 44.3424 48.3811V50.6123C42.726 51.1596 40.859 51.4638 38.8973 51.4638V51.2025C38.8973 50.5287 38.735 49.8841 38.4335 49.2804ZM47.5501 32.3865C47.5894 32.2137 47.6094 32.0384 47.6094 31.8615V25.0622H49.7875V31.3702C48.9692 31.6499 48.2172 31.9918 47.5501 32.3865ZM47.6094 25.0661C47.6094 22.7463 43.7514 20.71 38.8973 20.71C34.0432 20.71 30.1852 22.7463 30.1852 25.0661C30.1852 27.3859 34.0432 29.4222 38.8973 29.4222C43.7514 29.4222 47.6094 27.3859 47.6094 25.0661ZM46.5204 55.609V55.8198C46.5204 58.1437 49.9704 60.1759 55.2326 60.1759C60.4947 60.1759 63.9447 58.1437 63.9447 55.8198V55.6061V53.2601C61.9329 54.851 58.7336 55.8198 55.2326 55.8198C51.7315 55.8198 48.5322 54.851 46.5204 53.2601V55.609ZM44.3424 55.609V35.9553H46.5204V42.7516C46.5204 45.0755 49.9704 47.1077 55.2326 47.1077C60.4947 47.1077 63.9447 45.0755 63.9447 42.7516V35.9523H66.1227V55.6061V55.8198C66.1227 59.6314 61.1015 62.354 55.2326 62.354C49.3636 62.354 44.3424 59.6314 44.3424 55.8198V55.609ZM46.5204 49.2857C46.5204 51.6096 49.9704 53.6418 55.2326 53.6418C60.4947 53.6418 63.9447 51.6096 63.9447 49.2857V46.726C61.9329 48.3169 58.7336 49.2857 55.2326 49.2857C51.7315 49.2857 48.5322 48.3169 46.5204 46.726V49.2857ZM49.7875 25.0661C49.7875 28.7771 44.864 31.6002 38.8973 31.6002C32.9306 31.6002 28.0071 28.7771 28.0071 25.0661C28.0071 21.3551 32.9306 18.532 38.8973 18.532C44.864 18.532 49.7875 21.3551 49.7875 25.0661ZM63.9447 35.9563C63.9447 33.6365 60.0866 31.6002 55.2326 31.6002C50.3785 31.6002 46.5204 33.6365 46.5204 35.9563C46.5204 38.2761 50.3785 40.3123 55.2326 40.3123C60.0866 40.3123 63.9447 38.2761 63.9447 35.9563ZM19.295 51.4638C19.295 53.7877 22.745 55.8198 28.0071 55.8198C33.2693 55.8198 36.7193 53.7877 36.7193 51.4638V50.9354H38.8973V57.7297H36.7193V55.4382C34.7075 57.0291 31.5081 57.9979 28.0071 57.9979C24.5061 57.9979 21.3067 57.0291 19.295 55.4382V57.7307H17.1169V50.9364H19.295V51.4638ZM66.1227 35.9563C66.1227 39.6673 61.1993 42.4904 55.2326 42.4904C49.2658 42.4904 44.3424 39.6673 44.3424 35.9563C44.3424 32.2452 49.2658 29.4222 55.2326 29.4222C61.1993 29.4222 66.1227 32.2452 66.1227 35.9563ZM36.7193 57.7366H38.8973C38.8973 61.7006 33.876 64.532 28.0071 64.532C22.1382 64.532 17.1169 61.7006 17.1169 57.7366H19.295C19.295 60.1534 22.745 62.2669 28.0071 62.2669C33.2693 62.2669 36.7193 60.1534 36.7193 57.7366ZM38.8973 51.2025C38.8973 54.9135 33.9739 57.7366 28.0071 57.7366C22.0404 57.7366 17.1169 54.9135 17.1169 51.2025C17.1169 47.4915 22.0404 44.6684 28.0071 44.6684C33.9739 44.6684 38.8973 47.4915 38.8973 51.2025ZM36.7193 51.2025C36.7193 48.8827 32.8612 46.8464 28.0071 46.8464C23.153 46.8464 19.295 48.8827 19.295 51.2025C19.295 53.5223 23.153 55.5586 28.0071 55.5586C32.8612 55.5586 36.7193 53.5223 36.7193 51.2025Z" fill="#003E73"/>
</svg>
