<svg width="82" height="83" viewBox="0 0 82 83" fill="none" xmlns="http://www.w3.org/2000/svg">
<path d="M26.2974 26.2347C26.2974 24.0256 28.0882 22.2347 30.2974 22.2347H47.3805L51.1358 26.8446L55.7028 32.451V56.8293C55.7028 59.0385 53.9119 60.8293 51.7028 60.8293H30.2974C28.0882 60.8293 26.2974 59.0385 26.2974 56.8293V26.2347Z" fill="#003E73"/>
<path fill-rule="evenodd" clip-rule="evenodd" d="M46.0771 27.0373C46.0771 25.3804 44.7339 24.0373 43.0771 24.0373L30.9065 24.0373C29.2496 24.0373 27.9065 25.3804 27.9065 27.0373V56.0268C27.9065 57.6837 29.2496 59.0268 30.9065 59.0268H51.0936C52.7505 59.0268 54.0936 57.6837 54.0936 56.0268V36.8781C54.0936 35.2212 52.7505 33.8781 51.0936 33.8781H49.0771C47.4202 33.8781 46.0771 32.5349 46.0771 30.8781V27.0373Z" fill="#E1F3F8"/>
</svg>
