<svg width="82" height="82" viewBox="0 0 82 82" fill="none" xmlns="http://www.w3.org/2000/svg">
<path d="M28 24.0473L28.9853 23H45.7354L53 30V57H28V24.0473Z" fill="#E1F3F8"/>
<path d="M53.9749 29.0778L47.8585 23.016C47.2021 22.3655 46.3119 22 45.3836 22H30.5C28.567 22 27 23.553 27 25.4688V55.5312C27 57.447 28.567 59 30.5 59H51.5C53.433 59 55 57.447 55 55.5312V31.5305C55 30.6106 54.6312 29.7283 53.9749 29.0778ZM52.325 30.713C52.4744 30.861 52.5802 31.0467 52.6309 31.25H45.6667V24.348C45.8718 24.3981 46.0592 24.503 46.2085 24.6511L52.325 30.713ZM51.5 56.6875H30.5C29.8556 56.6875 29.3333 56.1699 29.3333 55.5312V25.4688C29.3333 24.8301 29.8556 24.3125 30.5 24.3125H43.3333V31.8281C43.3333 32.786 44.1168 33.5625 45.0833 33.5625H52.6667V55.5312C52.6667 56.1699 52.1444 56.6875 51.5 56.6875ZM39.7261 51.8165L37.8355 51.2726C37.7886 51.2591 37.7448 51.2366 37.7067 51.2063C37.6686 51.176 37.6368 51.1386 37.6133 51.0962C37.5898 51.0538 37.5749 51.0072 37.5695 50.9591C37.5642 50.911 37.5684 50.8623 37.582 50.8158L41.8132 36.3722C41.8268 36.3257 41.8495 36.2823 41.88 36.2446C41.9106 36.2068 41.9483 36.1753 41.9911 36.152C42.0339 36.1287 42.0809 36.1139 42.1294 36.1086C42.178 36.1033 42.2271 36.1075 42.274 36.121L44.1645 36.6649C44.2114 36.6784 44.2552 36.7009 44.2933 36.7312C44.3314 36.7615 44.3632 36.7989 44.3867 36.8413C44.4102 36.8837 44.4251 36.9303 44.4305 36.9784C44.4358 37.0265 44.4316 37.0752 44.418 37.1217L40.1869 51.5653C40.1733 51.6118 40.1506 51.6552 40.12 51.6929C40.0895 51.7307 40.0518 51.7622 40.009 51.7855C39.9662 51.8088 39.9192 51.8236 39.8706 51.8289C39.8221 51.8342 39.773 51.83 39.7261 51.8165ZM36.1936 48.3713L37.5419 46.9459C37.576 46.9099 37.6024 46.8675 37.6196 46.8211C37.6368 46.7748 37.6445 46.7255 37.6421 46.6762C37.6397 46.6269 37.6273 46.5785 37.6057 46.534C37.5841 46.4896 37.5537 46.4498 37.5163 46.4172L34.7091 43.9688L37.5163 41.5203C37.5537 41.4877 37.5841 41.448 37.6057 41.4035C37.6273 41.359 37.6396 41.3106 37.642 41.2613C37.6444 41.212 37.6368 41.1627 37.6196 41.1164C37.6024 41.07 37.5759 41.0276 37.5419 40.9916L36.1935 39.5662C36.1601 39.5309 36.12 39.5024 36.0755 39.4825C36.031 39.4625 35.983 39.4514 35.9342 39.4499C35.8854 39.4483 35.8367 39.4563 35.791 39.4734C35.7453 39.4904 35.7035 39.5162 35.6678 39.5493L31.2007 43.6999C31.1636 43.7343 31.1341 43.776 31.1138 43.8222C31.0936 43.8685 31.0832 43.9183 31.0832 43.9687C31.0832 44.0191 31.0936 44.069 31.1138 44.1152C31.1341 44.1615 31.1636 44.2031 31.2007 44.2376L35.6678 48.3881C35.7035 48.4212 35.7453 48.447 35.791 48.4641C35.8367 48.4812 35.8854 48.4892 35.9342 48.4876C35.983 48.4861 36.031 48.475 36.0755 48.455C36.12 48.4351 36.1601 48.4066 36.1936 48.3713ZM46.3321 48.3881L50.7991 44.2376C50.8362 44.2031 50.8658 44.1615 50.886 44.1152C50.9062 44.069 50.9167 44.0191 50.9167 43.9687C50.9167 43.9183 50.9062 43.8685 50.886 43.8222C50.8658 43.776 50.8362 43.7343 50.7991 43.6999L46.3321 39.5493C46.2965 39.5162 46.2546 39.4904 46.2089 39.4734C46.1632 39.4563 46.1146 39.4483 46.0658 39.4499C46.0169 39.4514 45.9689 39.4625 45.9244 39.4825C45.8799 39.5024 45.8398 39.5309 45.8064 39.5662L44.4581 40.9916C44.424 41.0276 44.3976 41.07 44.3804 41.1164C44.3632 41.1627 44.3555 41.212 44.3579 41.2613C44.3603 41.3106 44.3727 41.359 44.3943 41.4035C44.4159 41.4479 44.4463 41.4877 44.4837 41.5203L47.2909 43.9688L44.4837 46.4172C44.4463 46.4498 44.4159 46.4895 44.3943 46.534C44.3726 46.5785 44.3603 46.6269 44.3579 46.6762C44.3555 46.7255 44.3631 46.7748 44.3804 46.8211C44.3976 46.8675 44.424 46.9099 44.4581 46.9459L45.8064 48.3713C45.8399 48.4066 45.8799 48.4351 45.9244 48.455C45.9689 48.475 46.017 48.486 46.0658 48.4876C46.1146 48.4892 46.1632 48.4812 46.2089 48.4641C46.2546 48.447 46.2965 48.4212 46.3321 48.3881Z" fill="#003E73"/>
</svg>
