<svg width="366" height="267" viewBox="0 0 366 267" fill="none" xmlns="http://www.w3.org/2000/svg">
<rect x="189.762" y="2.44031" width="2.64356" height="74.901" fill="#C4C4C4"/>
<rect x="357.273" y="76.7345" width="2.44898" height="169.795" transform="rotate(90 357.273 76.7345)" fill="#C4C4C4"/>
<path d="M226.916 179.818L214.494 225.502H173.838L226.916 47.535H278.7L333.072 225.502H290.357L276.893 179.818H226.916ZM271.683 149.717L260.322 111.955C257.227 101.404 254.566 89.7948 251.977 79.2277L251.007 77.6296C248.406 88.1968 245.823 101.657 242.969 111.955L232.618 149.717H271.683Z" fill="white"/>
<path d="M97.4803 225.544L41.5486 47.5775H84.7878L106.019 122.828C111.98 144.221 117.477 161.93 121.614 184.115L122.325 186.467C126.738 165.063 132.175 143.946 138.13 123.615L160.397 47.5775H202.342L143.568 225.544H97.4803Z" fill="white"/>
<path d="M105.845 124.898L9.51904 124.081" stroke="#C4C4C4" stroke-width="3" stroke-miterlimit="10"/>
<rect x="105.029" y="2.44897" width="2.44897" height="121.632" fill="#C4C4C4"/>
<rect x="105.029" y="4.89795" width="2.44897" height="87.3467" transform="rotate(-90 105.029 4.89795)" fill="#C4C4C4"/>
<rect x="313.191" y="257.958" width="2.44899" height="181.224" transform="rotate(-180 313.191 257.958)" fill="#C4C4C4"/>
<path d="M218.095 212.244L218.761 209.795L313.192 209.795L313.192 212.244L218.095 212.244Z" fill="#C4C4C4"/>
<path d="M54.4169 213.061L54.4169 210.612L178.307 210.612L177.547 213.061L54.4169 213.061Z" fill="#C4C4C4"/>
<path d="M109.188 121.171H102.996V127.35H109.188V121.171Z" fill="#02BFE7"/>
<path d="M150.404 0H144.212V6.17959H150.404V0Z" fill="#02BFE7"/>
<path d="M238.567 75.1018H232.376V81.2814H238.567V75.1018Z" fill="#02BFE7"/>
<path d="M315.301 103.673H309.11V109.853H315.301V103.673Z" fill="#02BFE7"/>
<path d="M245.098 207.346H238.906V213.526H245.098V207.346Z" fill="#02BFE7"/>
<rect x="51" y="203" width="18" height="17" fill="#E31C3D"/>
<rect x="348" y="69" width="18" height="17" fill="#FDB81E"/>
<rect x="303" y="249" width="18" height="18" fill="#2E8540"/>
<rect y="115" width="18" height="18" fill="#02BFE7"/>
</svg>
