<svg width="291" height="189" viewBox="0 0 291 189" fill="none" xmlns="http://www.w3.org/2000/svg">
<path d="M269.745 188C278.177 167.551 283.283 133.196 283.283 133.196C283.283 133.196 287.147 111.475 283.283 98.4071C269.745 52.6249 210.387 62.9387 181.999 77.9999C142.668 98.8669 82.8146 102.638 40.499 77.9999C18.2776 65.0617 11.9093 39.683 9.49902 23.4999" stroke="#AEB0B5" stroke-width="2" stroke-linecap="round" stroke-linejoin="round" stroke-dasharray="6 6"/>
<path d="M285 127C288.314 127 291 124.314 291 121C291 117.686 288.314 115 285 115C281.686 115 279 117.686 279 121C279 124.314 281.686 127 285 127Z" fill="#61F290"/>
<path d="M56 138.269V141.731C56 142.034 55.8939 142.291 55.6818 142.504C55.4696 142.716 55.2123 142.822 54.9091 142.822H50.8222V146.909C50.8222 147.212 50.7161 147.47 50.504 147.682C50.2918 147.894 50.0345 148 49.7313 148H46.2687C45.9655 148 45.7082 147.894 45.496 147.682C45.2839 147.47 45.1778 147.212 45.1778 146.909V142.822H41.0909C40.7877 142.822 40.5304 142.716 40.3182 142.504C40.1061 142.292 40 142.034 40 141.731V138.269C40 137.966 40.1061 137.709 40.3182 137.496C40.5304 137.284 40.7877 137.178 41.0909 137.178H45.1778V133.091C45.1778 132.788 45.2839 132.53 45.496 132.318C45.7082 132.106 45.9663 132 46.2687 132H49.7305C50.0337 132 50.291 132.106 50.5031 132.318C50.7153 132.53 50.8214 132.788 50.8214 133.091V137.178H54.9083C55.2115 137.178 55.4688 137.284 55.6809 137.496C55.8939 137.709 56 137.967 56 138.269Z" fill="#E1F3F8"/>
<path d="M268.543 68.2314L263.315 65.2003L258.082 68.2166L258.069 74.2548L263.298 77.2859L268.535 74.2713L268.543 68.2314Z" fill="#FDB81E"/>
<path d="M8.78833 15.1208C8.61817 15.1208 8.47469 15.0615 8.35645 14.9435L2.23584 9.01705C2.17023 8.96495 2.0801 8.87956 1.96618 8.76089C1.85154 8.64293 1.67057 8.42802 1.42182 8.11614C1.17308 7.80426 0.951006 7.48442 0.754892 7.15662C0.558779 6.82882 0.384296 6.43155 0.230722 5.96554C0.0764265 5.49952 0 5.04726 0 4.6073C0 3.16367 0.415299 2.03482 1.2459 1.22075C2.07577 0.406675 3.22361 0 4.6887 0C5.0939 0 5.50776 0.0709149 5.92955 0.211297C6.35133 0.352404 6.74356 0.542716 7.10695 0.782235C7.46961 1.02175 7.78181 1.2468 8.04353 1.45665C8.30526 1.6665 8.55328 1.8901 8.78905 2.126C9.0241 1.88938 9.27285 1.6665 9.53457 1.45665C9.7963 1.2468 10.1085 1.02175 10.4712 0.782235C10.8338 0.542716 11.2268 0.352404 11.6486 0.211297C12.0696 0.0709149 12.4835 0 12.8887 0C14.353 0 15.5009 0.406675 16.3315 1.22075C17.1621 2.03482 17.5774 3.16367 17.5774 4.6073C17.5774 6.05744 16.8283 7.53435 15.3315 9.03731L9.22093 14.9442C9.10269 15.0622 8.95849 15.1208 8.78833 15.1208Z" fill="#981B1E"/>
<path fill-rule="evenodd" clip-rule="evenodd" d="M167.41 154.315L176.584 120.576H213.493L223.436 154.315H254.983L214.827 22.8816H176.584L137.384 154.315H167.41ZM194.679 46.2571L209.645 98.3462H180.795L188.439 70.4572C190.547 62.8522 192.758 54.0612 194.679 46.2571Z" fill="#F1F1F1"/>
<path d="M39.6846 22.9131L80.9917 154.347H115.028L158.435 22.9131H127.458L111.013 79.0686C106.615 94.0836 102.599 109.679 99.3402 125.487L71.6179 22.9131H39.6846Z" fill="#F1F1F1"/>
</svg>
