<svg width="311" height="311" viewBox="0 0 311 311" fill="none" xmlns="http://www.w3.org/2000/svg">
<rect width="311" height="311" transform="matrix(-1 0 0 1 311 0)" fill="white"/>
<mask id="mask0" mask-type="alpha" maskUnits="userSpaceOnUse" x="27" y="30" width="257" height="257">
<circle r="128.5" transform="matrix(-1 0 0 1 155.5 158.5)" fill="#02BFE7"/>
</mask>
<g mask="url(#mask0)">
<circle r="128.5" transform="matrix(-1 0 0 1 155.5 158.5)" fill="#9BDAF1"/>
<path fill-rule="evenodd" clip-rule="evenodd" d="M109.6 144.3C109.95 147.063 109.867 149.73 109.415 150.226C108.964 150.722 108.164 150.695 107.638 150.166C107.113 149.637 106.448 146.945 106.164 144.184C105.878 141.423 105.633 138.127 105.617 136.86C105.601 135.594 105.85 134.446 106.17 134.311C106.49 134.176 107.022 134.194 107.354 134.351C107.687 134.509 108.184 135.681 108.462 136.956C108.737 138.232 109.25 141.536 109.6 144.3Z" fill="#800104"/>
<path fill-rule="evenodd" clip-rule="evenodd" d="M182.774 121.872C181.204 124.259 178.894 126.046 177.645 125.841C176.394 125.637 174.912 124.634 174.349 123.612C173.786 122.59 174.709 119.867 176.403 117.561C178.096 115.255 180.293 112.618 181.284 111.702C182.278 110.786 183.671 110.28 184.381 110.578C185.093 110.876 186.082 111.545 186.579 112.065C187.077 112.584 187.067 114.027 186.558 115.27C186.049 116.514 184.347 119.485 182.774 121.872Z" fill="#800104"/>
<path fill-rule="evenodd" clip-rule="evenodd" d="M208.556 135.107C206.606 137.202 204.039 138.572 202.853 138.152C201.666 137.731 200.39 136.478 200.017 135.366C199.644 134.254 201.02 131.714 203.074 129.721C205.128 127.728 207.732 125.495 208.862 124.759C209.991 124.023 211.442 123.763 212.085 124.183C212.729 124.602 213.579 125.438 213.976 126.04C214.372 126.642 214.112 128.072 213.399 129.216C212.686 130.361 210.506 133.012 208.556 135.107Z" fill="#800104"/>
<path fill-rule="evenodd" clip-rule="evenodd" d="M213.323 157.69C211.213 159.623 208.551 160.78 207.407 160.261C206.263 159.742 205.1 158.381 204.822 157.239C204.543 156.096 206.119 153.67 208.325 151.848C210.53 150.026 213.301 148.01 214.484 147.368C215.666 146.725 217.128 146.586 217.732 147.059C218.337 147.532 219.112 148.439 219.456 149.074C219.8 149.709 219.424 151.117 218.621 152.202C217.817 153.288 215.433 155.757 213.323 157.69Z" fill="#800104"/>
<path fill-rule="evenodd" clip-rule="evenodd" d="M212.653 191.508C210.31 193.143 207.53 193.93 206.474 193.256C205.419 192.582 204.459 191.067 204.341 189.89C204.223 188.713 206.108 186.513 208.529 185.001C210.95 183.489 213.955 181.861 215.208 181.384C216.46 180.906 217.919 180.969 218.45 181.523C218.98 182.077 219.62 183.086 219.872 183.766C220.123 184.446 219.56 185.798 218.621 186.768C217.681 187.739 214.995 189.872 212.653 191.508Z" fill="#800104"/>
<path fill-rule="evenodd" clip-rule="evenodd" d="M91.9638 313.68C91.9638 313.68 119.404 261.432 123.205 256.245C124.346 254.686 127.876 252.374 129.372 251.152C131.863 249.116 137.731 246.327 140.276 244.36C145.854 240.05 155.771 229.941 160.758 224.952C162.271 223.439 164.987 220.088 166.646 218.735C171.195 215.028 186.551 206.391 186.551 206.391C186.551 206.391 199.026 199.216 202.909 196.395C204.48 195.253 207.588 192.845 208.817 191.338C209.314 190.728 210.302 189.363 210.335 188.591C210.392 187.252 209.15 184.613 208.109 183.819C207.422 183.295 205.535 183.053 204.664 183.219C201.808 183.763 197.106 187.771 194.568 189.255C192.388 190.53 188.013 193.05 185.804 194.27C183.061 195.785 174.75 200.16 174.75 200.16L164.4 204.054L163.771 202.696L166.042 199.141C166.042 199.141 179.918 186.61 184.484 182.368C188.589 178.555 196.739 170.869 200.737 166.944C203.176 164.549 208.98 160.322 210.331 157.199C210.833 156.039 210.952 153.352 210.491 152.214C210.077 151.194 208.334 149.622 207.316 149.207C206.54 148.891 204.746 148.888 203.921 149.13C202.785 149.465 200.889 151.048 199.946 151.785C196.407 154.555 190.044 160.949 186.65 163.897C183.132 166.952 175.793 172.702 172.293 175.779C169.639 178.11 161.964 185.419 161.964 185.419L160.094 186.281L161.129 183.327C161.129 183.327 169.728 174.444 172.462 171.361C175.815 167.58 182.014 159.59 185.365 155.81C188.803 151.935 196.051 144.529 199.612 140.769C201.132 139.165 204.748 136.34 205.691 134.352C206.026 133.647 206.23 132.031 206.07 131.287C205.838 130.213 204.563 128.337 203.775 127.592C203.25 127.093 201.961 126.261 201.228 126.194C199.939 126.075 197.358 127.122 196.209 127.78C192.654 129.817 186.922 135.9 183.977 138.769C180.845 141.821 174.95 148.29 171.944 151.466C170.518 152.97 167.668 155.978 166.245 157.482C163.585 160.289 158.428 166.066 155.611 168.717C154.449 169.813 150.717 172.83 150.717 172.83L148.858 172.466L147.836 170.23C147.836 170.23 148.873 167.268 149.348 166.335C151.303 162.504 156.295 155.432 158.693 151.851C162.293 146.475 169.809 135.931 173.475 130.596C174.557 129.019 176.777 125.899 177.771 124.265C178.165 123.612 178.925 122.281 179.219 121.58C179.547 120.796 180.298 119.171 180.219 118.341C180.166 117.804 179.53 116.88 179.186 116.476C178.711 115.919 177.51 115.047 176.879 114.673C176.245 114.295 174.914 113.498 174.165 113.494C173.292 113.49 171.623 114.329 170.889 114.831C169.259 115.948 166.742 119.087 165.444 120.58C163.002 123.387 158.47 129.291 156.164 132.208C153.182 135.98 147.183 143.502 144.301 147.35C141.666 150.866 134.077 161.636 134.077 161.636L125.662 170.277L117.049 178.605L111.965 181.148L110.817 180.565C110.817 180.565 112.453 170.448 112.898 167.064C113.333 163.735 114.647 157.035 114.342 153.722C114.043 150.457 111.962 144.189 110.564 141.267C109.861 139.794 108.363 136.601 106.898 135.891C105.697 135.311 102.569 135.363 101.48 136.214C100.509 136.975 100.097 139.67 99.9803 140.881C99.7997 142.776 100.989 146.469 100.92 148.366C100.763 152.8 98.7008 161.584 97.4642 165.89C96.3234 169.857 92.7913 177.414 91.5712 181.36C90.075 186.192 87.7233 196.027 86.8516 200.986C86.0162 205.748 84.6172 215.322 84.2962 220.126C84.1949 221.668 84.6613 224.779 84.2969 226.292C83.1033 231.236 49.0911 278.613 49.0911 278.613L91.9638 313.68Z" fill="black" fill-opacity="0.07"/>
<path fill-rule="evenodd" clip-rule="evenodd" d="M97.4843 313.48C97.4843 313.48 124.925 261.232 128.725 256.045C129.866 254.486 133.396 252.174 134.892 250.951C137.384 248.916 143.251 246.127 145.797 244.16C151.374 239.85 161.291 229.741 166.278 224.752C167.792 223.238 170.507 219.887 172.166 218.535C176.715 214.827 192.072 206.191 192.072 206.191C192.072 206.191 204.547 199.016 208.429 196.194C210.001 195.053 213.109 192.644 214.338 191.137C214.835 190.528 215.823 189.162 215.856 188.39C215.913 187.051 214.671 184.412 213.629 183.618C212.942 183.095 211.056 182.853 210.184 183.019C207.328 183.562 202.626 187.57 200.089 189.055C197.909 190.33 193.533 192.85 191.325 194.07C188.581 195.584 180.271 199.959 180.271 199.959L169.921 203.853L169.291 202.495L171.563 198.941C171.563 198.941 185.438 186.41 190.004 182.168C194.109 178.355 202.259 170.668 206.257 166.744C208.696 164.348 214.501 160.121 215.852 156.999C216.354 155.839 216.472 153.151 216.011 152.014C215.598 150.994 213.854 149.421 212.837 149.007C212.06 148.691 210.266 148.687 209.442 148.93C208.305 149.265 206.409 150.848 205.467 151.585C201.928 154.354 195.564 160.749 192.17 163.697C188.653 166.752 181.313 172.501 177.813 175.578C175.16 177.91 167.484 185.218 167.484 185.218L165.615 186.081L166.65 183.126C166.65 183.126 175.248 174.243 177.982 171.16C181.336 167.38 187.535 159.39 190.885 155.61C194.323 151.735 201.572 144.329 205.133 140.569C206.652 138.965 210.268 136.14 211.212 134.152C211.546 133.447 211.751 131.831 211.59 131.087C211.359 130.012 210.083 128.137 209.296 127.391C208.77 126.893 207.482 126.061 206.749 125.993C205.459 125.875 202.879 126.921 201.729 127.58C198.175 129.617 192.443 135.699 189.497 138.569C186.366 141.621 180.471 148.09 177.464 151.265C176.039 152.769 173.188 155.778 171.766 157.281C169.105 160.089 163.949 165.865 161.132 168.517C159.97 169.613 156.238 172.63 156.238 172.63L154.378 172.266L153.357 170.03C153.357 170.03 154.393 167.067 154.868 166.134C156.823 162.304 161.815 155.231 164.214 151.65C167.814 146.275 175.33 135.731 178.995 130.396C180.077 128.819 182.298 125.699 183.291 124.065C183.686 123.412 184.446 122.081 184.74 121.379C185.067 120.596 185.819 118.971 185.74 118.141C185.686 117.603 185.051 116.68 184.706 116.276C184.232 115.718 183.03 114.846 182.4 114.472C181.766 114.095 180.434 113.297 179.685 113.293C178.813 113.29 177.144 114.128 176.409 114.631C174.78 115.748 172.263 118.886 170.965 120.38C168.522 123.187 163.99 129.091 161.685 132.008C158.703 135.78 152.703 143.302 149.821 147.15C147.187 150.666 139.598 161.435 139.598 161.435L131.182 170.077L122.569 178.405L117.486 180.948L116.337 180.365C116.337 180.365 117.973 170.248 118.418 166.864C118.854 163.535 120.168 156.835 119.863 153.521C119.563 150.256 117.482 143.989 116.084 141.067C115.382 139.594 113.884 136.401 112.419 135.69C111.217 135.11 108.09 135.163 107 136.014C106.03 136.774 105.617 139.47 105.501 140.681C105.32 142.575 106.509 146.269 106.441 148.166C106.283 152.6 104.221 161.384 102.985 165.69C101.844 169.656 98.3118 177.214 97.0917 181.16C95.5955 185.991 93.2438 195.827 92.3721 200.786C91.5367 205.548 90.1377 215.122 89.8167 219.925C89.7154 221.467 90.1818 224.579 89.8175 226.091C88.6238 231.036 54.6116 278.413 54.6116 278.413L97.4843 313.48Z" fill="#B08273"/>
<path fill-rule="evenodd" clip-rule="evenodd" d="M107.468 143.978C107.395 146.544 107.028 148.957 106.651 149.339C106.274 149.722 105.705 148.45 105.394 147.888C105.084 147.327 104.933 145.904 105.052 143.35C105.17 140.796 105.379 137.762 105.514 136.608C105.65 135.453 105.959 134.448 106.201 134.374C106.443 134.3 106.817 134.397 107.034 134.591C107.25 134.784 107.466 135.926 107.515 137.127C107.562 138.33 107.541 141.412 107.468 143.978Z" fill="#800104"/>
<path d="M162.732 218.428C156.784 214.498 139.249 197.418 135.722 182.509C143.561 200.467 152.27 208.167 162.732 218.428Z" fill="#614A37"/>
<path d="M126.299 210.223C130.347 200.609 129.899 185.71 130.124 179.257C129.086 185.916 129.435 199.977 124.892 210.274C121.047 218.988 115.118 222.752 108.099 224.974C113.779 223.937 121.239 222.24 126.299 210.223Z" fill="#624A37"/>
<path d="M192.505 138.113C194.833 138.735 197.484 142.7 198.78 144.884C197.984 142.475 197.113 141.457 196.135 140.296C195.272 139.271 193.567 138.397 192.505 138.113Z" fill="#624A37"/>
<path d="M202.198 161.276C201.335 160.251 199.255 159.6 198.193 159.316C199.35 159.626 200.924 160.434 202.034 161.765C203.158 163.113 203.816 164.988 204.468 166.087C203.672 163.678 203.175 162.437 202.198 161.276Z" fill="#624A37"/>
<path d="M205.025 197.675C205.463 195.074 205.434 194.44 205.136 192.952C204.973 192.135 204.011 190.63 203.34 190.013C202.801 189.516 202.034 189.196 201.381 189.033C202.687 189.686 203.916 191.15 204.483 192.788C205.057 194.447 204.973 196.381 205.025 197.675Z" fill="#624A37"/>
<path d="M193.707 168.786C192.844 167.762 190.764 167.111 189.702 166.827C190.86 167.136 192.433 167.945 193.544 169.276C194.668 170.624 195.326 172.499 195.978 173.598C195.181 171.189 194.685 169.947 193.707 168.786Z" fill="#624A37"/>
<path d="M156.615 140.013C159.249 140.226 162.886 143.978 164.713 146.076C163.381 143.637 162.241 142.711 160.959 141.652C159.827 140.717 157.817 140.11 156.615 140.013Z" fill="#624A37"/>
<path d="M173.779 155.975C176.662 156.528 180.232 161.215 181.999 163.813C180.818 160.887 179.671 159.701 178.381 158.348C177.242 157.153 175.094 156.227 173.779 155.975Z" fill="#624A37"/>
<path d="M155.726 174.044C159.322 175.255 163.118 181.464 164.951 184.864C163.922 181.192 162.649 179.574 161.222 177.731C159.962 176.104 157.366 174.596 155.726 174.044Z" fill="#624A37"/>
<path d="M140.701 161.478C144.49 161.707 149.776 166.708 152.435 169.51C150.482 166.235 148.83 165.006 146.97 163.6C145.329 162.359 142.429 161.583 140.701 161.478Z" fill="#624A37"/>
<path fill-rule="evenodd" clip-rule="evenodd" d="M195.531 234.047C194.981 232.124 194.385 228.135 194.356 226.136C194.309 222.806 195.885 216.239 195.931 212.909C196.031 205.615 194.146 191.094 193.278 183.851C193.015 181.653 192.008 177.306 191.978 175.093C191.897 169.022 194.897 150.983 194.897 150.983C194.897 150.983 197.2 136.228 197.42 131.263C197.51 129.254 197.559 125.185 197.112 123.224C196.93 122.431 196.44 120.757 195.811 120.241C194.72 119.346 191.663 118.689 190.296 119.038C189.394 119.268 187.928 120.659 187.484 121.477C186.03 124.158 186.261 130.546 185.814 133.563C185.429 136.154 184.624 141.332 184.174 143.912C183.615 147.116 181.74 156.69 181.74 156.69L178.093 167.625L176.526 167.281L175.05 163.169C175.05 163.169 173.774 143.873 173.254 137.448C172.787 131.675 171.762 120.134 171.129 114.376C170.743 110.862 171.063 103.433 169.336 100.349C168.694 99.2035 166.506 97.4031 165.238 97.0591C164.102 96.7517 161.608 97.1814 160.577 97.7514C159.79 98.1859 158.586 99.6519 158.239 100.48C157.76 101.623 157.825 104.177 157.817 105.416C157.782 110.066 158.914 119.326 159.127 123.971C159.347 128.786 159.282 138.434 159.533 143.247C159.723 146.896 160.746 157.809 160.746 157.809L160.222 159.885L158.422 157.166C158.422 157.166 156.69 144.5 155.921 140.309C154.978 135.171 152.39 125.034 151.447 119.896C150.481 114.628 149.089 104.004 148.303 98.7068C147.967 96.4466 148.006 91.698 146.961 89.6662C146.59 88.9457 145.365 87.7546 144.63 87.4136C143.569 86.9223 141.133 86.7774 139.977 86.9493C139.205 87.0637 137.64 87.5905 137.092 88.1471C136.129 89.1275 135.283 91.9018 135.07 93.2601C134.407 97.4592 135.705 106.003 136.154 110.231C136.63 114.728 138.145 123.65 138.809 128.123C139.123 130.243 139.753 134.48 140.067 136.599C140.654 140.554 142.064 148.437 142.415 152.42C142.56 154.068 142.602 159.033 142.602 159.033L141.049 160.322L138.479 159.742C138.479 159.742 136.673 157.017 136.205 156.037C134.284 152.01 131.661 143.443 130.248 139.211C128.126 132.857 124.267 120.025 122.221 113.646C121.617 111.761 120.472 107.966 119.758 106.119C119.472 105.382 118.858 103.917 118.464 103.232C118.023 102.466 117.394 101.227 116.64 100.767C116.152 100.469 114.436 100.021 113.865 100.046C113.076 100.082 111.664 100.258 110.926 100.536C110.183 100.817 108.765 101.631 108.26 102.243C107.673 102.954 107.262 104.852 107.195 105.77C107.046 107.811 108.007 111.859 108.397 113.869C109.129 117.646 111.074 125.095 111.989 128.832C113.173 133.663 115.5 143.337 116.815 148.135C118.017 152.517 122.017 165.553 122.017 165.553L123.668 177.917L124.924 190.242L123.666 196.011L122.404 196.583C122.404 196.583 114.968 188.831 112.412 186.324C109.897 183.857 105.126 178.537 102.128 176.686C99.1729 174.863 92.4947 172.592 89.0958 171.883C87.3819 171.526 83.6863 170.726 82.1055 171.477C80.8129 172.09 78.7622 174.683 78.7507 176.113C78.7417 177.391 81.1197 178.986 82.0637 179.847C83.5405 181.196 87.0704 183.014 88.6247 184.272C92.2573 187.213 98.2845 194.467 101.088 198.207C103.67 201.653 107.678 209.334 110.188 212.834C113.261 217.119 119.98 225.279 123.579 229.133C127.036 232.835 134.172 240.047 138.009 243.353C139.241 244.415 142.177 246.004 143.209 247.261C146.58 251.372 152.406 266.434 152.406 266.434L206.132 258.46C206.132 258.46 197.36 240.444 195.531 234.047Z" fill="#F5C9B0"/>
<path d="M118.588 194.179L105.965 179.836L122.447 196.644L123.75 196.06L125.034 189.914L121.915 165.491L117.947 152.132L116.15 145.438L114.494 138.52L122.665 165.906L126.116 190.024L124.915 195.726C124.763 196.294 124.196 197.613 123.142 198.335C122.089 199.058 119.667 195.865 118.588 194.179Z" fill="#CDB5A0"/>
<path fill-rule="evenodd" clip-rule="evenodd" d="M88.0138 181.687C88.1474 182.658 87.8385 182.947 87.442 183.403C86.9495 183.506 84.779 182.112 82.9777 180.749C81.177 179.386 79.4413 177.755 79.2256 177.522C79.0099 177.29 79.2121 176.753 79.5043 176.211C79.7964 175.669 80.0498 175.494 80.1864 175.364C80.3229 175.234 80.5169 175.214 81.0462 175.439C81.5754 175.664 83.7822 177.191 85.6406 178.467C87.4994 179.742 87.8801 180.715 88.0138 181.687Z" fill="#F9E6D2"/>
<path fill-rule="evenodd" clip-rule="evenodd" d="M116.572 111.067C115.335 111.996 113.587 111.925 112.147 111.707C110.707 111.489 109.567 110.808 108.789 107.784C108.084 105.042 108.09 105.237 108.133 104.447C108.136 104.392 108.128 104.14 108.126 104.076C108.115 103.394 108.556 102.374 109.432 101.97C110.309 101.566 111.358 100.93 112.868 100.675C114.378 100.421 116.184 101.062 116.775 101.841C117.365 102.62 117.851 105.548 118.38 108.516C118.021 109.924 117.808 110.139 116.572 111.067Z" fill="#F9E6D2"/>
<path fill-rule="evenodd" clip-rule="evenodd" d="M146.174 94.0875C146.226 97.0499 144.977 97.0895 143.678 97.6733C142.379 98.2571 139.601 98.1021 138.301 97.5639C137.616 97.2802 137.443 96.989 137.008 95.137C136.909 94.7153 136.889 93.7698 136.889 93.4475C136.887 91.3071 136.701 90.3155 136.909 89.5055C137.223 88.2905 138.287 87.9494 139.139 87.6734C139.992 87.3979 140.83 87.4114 141.672 87.4502C142.513 87.489 143.465 87.4634 144.415 88.0914C145.365 88.7194 145.459 88.9096 145.973 91.7873C146.108 92.5433 146.16 93.3292 146.174 94.0875Z" fill="#F9E6D2"/>
<path fill-rule="evenodd" clip-rule="evenodd" d="M167.279 107.418C166.708 108.075 164.788 108.004 163.809 108.05C162.663 108.103 162.062 107.905 161.382 107.68C160.122 107.262 159.585 105.971 159.413 103.816C159.24 101.661 159.161 101.596 159.349 100.207C159.538 98.818 161.175 98.1984 162.023 97.9496C162.873 97.701 164.394 97.6952 165.221 97.765C166.048 97.8345 167.335 98.3511 167.817 99.6684C168.298 100.987 168.682 101.112 168.55 104.023C168.297 106.434 168.263 106.287 167.279 107.418Z" fill="#F9E6D2"/>
<path fill-rule="evenodd" clip-rule="evenodd" d="M194.542 128.291C193.912 128.539 192.861 128.507 192.072 128.497C191.251 128.487 190.092 128.274 189.502 127.993C188.346 127.44 188.347 126.826 188.478 123.972C188.609 121.117 188.732 121.071 189.497 120.159C190.261 119.247 190.699 119.093 191.498 119.079C192.297 119.065 192.818 119.057 193.647 119.241C194.476 119.425 195.016 119.85 195.458 120.542C195.901 121.234 195.982 121.188 196.014 124.046C196.046 126.904 195.825 127.785 194.542 128.291Z" fill="#F9E6D2"/>
<path d="M152.753 288.87C149.837 281.267 144.157 265.787 144.766 264.688C145.527 263.314 143.637 259.654 147.743 259.317C151.848 258.98 186.545 265.31 201.341 248.04L201.049 247.388C201.954 246.298 205.247 244.654 206.692 245.454C208.391 246.396 215.215 265.525 218.415 274.972L224.127 298.546L163.646 306.335L152.753 288.87Z" fill="#0071BC"/>
<path d="M167.229 141.388C165.401 141.46 162.677 140.585 161.624 140.136C162.321 141.253 166.118 142.249 167.75 142.185C169.055 142.134 171.299 141.012 172.255 140.375C171.286 140.686 169.056 141.317 167.229 141.388Z" fill="#CDB5A0"/>
<path d="M146.791 137.227C148.608 137.024 151.172 135.753 152.145 135.151C151.623 136.36 148.017 137.912 146.394 138.093C145.096 138.238 142.71 137.463 141.67 136.977C142.674 137.139 144.973 137.43 146.791 137.227Z" fill="#CDB5A0"/>
<path d="M165.027 123.057C166.856 123.055 169.543 122.232 170.577 121.821C169.925 122.777 166.171 123.738 164.538 123.741C163.232 123.743 160.945 122.881 159.964 122.382C160.944 122.608 163.198 123.06 165.027 123.057Z" fill="#CDB5A0"/>
<path d="M187.934 155.859C186.337 155.527 184.165 154.202 183.349 153.595C183.716 154.691 186.791 156.35 188.216 156.646C189.356 156.883 191.535 156.414 192.497 156.08C191.593 156.135 189.53 156.191 187.934 155.859Z" fill="#CDB5A0"/>
<path d="M190.941 138.178C189.315 138.063 186.967 137.279 186.069 136.906C186.599 137.665 189.888 138.619 191.34 138.722C192.502 138.804 194.581 138.299 195.478 137.984C194.595 138.094 192.567 138.294 190.941 138.178Z" fill="#CDB5A0"/>
<path d="M123.525 143.773C125.258 143.189 127.734 141.497 128.557 140.703C128.303 141.995 125.691 143.835 124.143 144.356C122.906 144.774 119.587 144.871 118.468 144.616C119.483 144.561 121.792 144.357 123.525 143.773Z" fill="#CDB5A0"/>
<path d="M144.059 115.653C145.876 115.442 148.649 114.303 149.62 113.697C149.103 114.908 146.165 116.164 144.543 116.352C143.245 116.503 139.979 115.908 138.937 115.426C139.942 115.583 142.243 115.864 144.059 115.653Z" fill="#CDB5A0"/>
<path d="M118.5 126.494C120.196 126.109 122.71 124.782 123.57 124.13C123.195 125.279 120.536 126.73 119.022 127.074C117.81 127.35 114.67 127.162 113.641 126.839C114.604 126.874 116.804 126.88 118.5 126.494Z" fill="#CDB5A0"/>
<path d="M226.792 124.728C224.874 126.089 225.834 128.416 228.212 126.727C229.072 126.116 241.54 117.715 247.667 113.591C248.663 113.049 250.337 111.547 249.062 109.881C247.788 108.214 245.484 109.798 244.491 110.799C239.39 114.874 228.709 123.366 226.792 124.728Z" fill="white"/>
<path d="M72.3925 198.81C74.3956 198.326 74.4155 196.303 71.9313 196.903C71.0322 197.121 58.1592 199.931 51.8351 201.308C50.8503 201.436 48.9951 202.095 49.4524 203.709C49.9098 205.324 52.2994 204.781 53.4371 204.308C58.9209 202.677 70.3894 199.295 72.3925 198.81Z" fill="white"/>
<path d="M232.226 176.178C229.94 175.63 228.82 177.884 231.656 178.563C232.682 178.809 247.213 182.667 254.35 184.565C255.414 184.958 257.646 185.23 258.062 183.174C258.478 181.118 255.769 180.425 254.362 180.336C247.937 179.178 234.513 176.725 232.226 176.178Z" fill="white"/>
<path d="M76.5559 147.871C79.4576 148.773 80.8829 146.648 77.2844 145.529C75.982 145.124 57.5451 139.002 48.4894 135.992C47.1394 135.431 44.3066 134.817 43.7753 136.848C43.244 138.878 46.6814 139.992 48.4665 140.295C56.6206 142.444 73.6542 146.968 76.5559 147.871Z" fill="white"/>
<path d="M233.477 148.942C230.29 149.168 229.7 151.681 233.652 151.4C235.082 151.298 255.48 150.22 265.5 149.693C267.036 149.72 270.046 149.248 269.796 147.154C269.546 145.06 265.754 145.287 263.889 145.662C255.08 146.661 236.664 148.715 233.477 148.942Z" fill="white"/>
<path d="M200.673 104.311C198.911 106.977 200.545 108.976 202.729 105.67C203.52 104.473 215.088 87.6393 220.773 79.3717C221.729 78.1693 223.189 75.495 221.376 74.4177C219.563 73.3403 217.433 76.4863 216.594 78.1939C212.021 85.789 202.434 101.646 200.673 104.311Z" fill="white"/>
<path d="M87.1999 126.95C88.9885 128.476 91.0102 126.977 88.7921 125.084C87.9893 124.399 76.7971 114.361 71.3013 109.428C70.5318 108.594 68.6667 107.338 67.362 108.981C66.0574 110.624 68.1563 112.471 69.3689 113.189C74.5673 117.14 85.4113 125.423 87.1999 126.95Z" fill="white"/>
<path d="M72.9718 174.427C75.7026 174.34 76.2959 172.36 72.9093 172.469C71.6837 172.508 54.2199 172.77 45.6412 172.896C44.3298 172.831 41.7417 173.118 41.8812 174.789C42.0207 176.461 45.2686 176.391 46.8751 176.147C54.4362 175.61 70.2411 174.514 72.9718 174.427Z" fill="white"/>
</g>
</svg>
