<svg width="227" height="268" viewBox="0 0 227 268" fill="none" xmlns="http://www.w3.org/2000/svg">
<path d="M60.5 217.189L44 264.689" stroke="#02BFE7" stroke-width="4" stroke-linecap="square" stroke-dasharray="5 7 5 7 5 7"/>
<path d="M76.9675 52.3876L63.2874 4" stroke="#02BFE7" stroke-width="4" stroke-linecap="square" stroke-dasharray="5 7 5 7 5 7"/>
<rect x="78.7463" y="49.6752" width="152.719" height="3.6687" transform="rotate(52.9121 78.7463 49.6752)" fill="#E31C3D"/>
<rect x="58.6992" y="216.898" width="112.397" height="3.6687" transform="rotate(-22.8856 58.6992 216.898)" fill="#E31C3D"/>
<rect x="55.0305" y="218.887" width="95.8131" height="3.6687" transform="rotate(-80.9277 55.0305 218.887)" fill="#2E8540"/>
<rect x="70.313" y="109.691" width="143.811" height="3.6687" transform="rotate(-38.7197 70.313 109.691)" fill="#02BFE7"/>
<rect x="210.346" y="113.43" width="89.8045" height="3.6687" transform="rotate(-103.39 210.346 113.43)" fill="#FDB81E"/>
<rect x="11.5299" y="120.143" width="239.592" height="3.6687" transform="rotate(33.524 11.5299 120.143)" fill="#02BFE7"/>
<rect x="212.781" y="120.603" width="129.65" height="3.6687" transform="rotate(87.3398 212.781 120.603)" fill="#FDB81E"/>
<rect x="82.5394" y="43.5607" width="146.684" height="3.6687" transform="rotate(29.8863 82.5394 43.5607)" fill="#2E8540"/>
<rect x="76.2586" y="47.3359" width="92.4985" height="3.6687" transform="rotate(134.083 76.2586 47.3359)" fill="#2E8540"/>
<rect x="152" y="161.689" width="22" height="22" fill="#E31C3D"/>
<rect x="201" y="103.689" width="20" height="22" fill="#FDB81E"/>
<rect y="101.689" width="21" height="23" fill="#E31C3D"/>
<rect x="65" y="38.6885" width="22" height="22" fill="#2E8540"/>
<rect x="62" y="105.689" width="21" height="23" fill="#2E8540"/>
<rect x="179" y="9.68854" width="22" height="22" fill="#02BFE7"/>
<rect x="207" y="241.689" width="20" height="22" fill="#02BFE7"/>
<rect x="49" y="208.689" width="21" height="21" fill="#FDB81E"/>
</svg>
