<svg width="83" height="83" viewBox="0 0 83 83" fill="none" xmlns="http://www.w3.org/2000/svg">
<path d="M40.5703 28.8991C40.5703 30.0243 40.4145 31.0902 39.8867 32.0777C39.3851 33.0162 38.3565 33.9817 36.0505 34.743C33.0704 35.7269 31.351 37.0974 30.4198 38.7437C29.5135 40.3462 29.4138 42.1155 29.4138 43.7744L29.4138 43.8295C29.4136 44.9007 29.4133 46.2891 30.1248 47.6202C30.8747 49.0232 32.3492 50.2614 35.0493 51.1529C37.6469 52.0105 38.9312 53.1193 39.6092 54.3182C40.3121 55.561 40.5703 57.003 40.5703 58.6497L42.4297 58.6497C42.4297 56.9908 42.33 55.2215 41.4237 53.619C40.4925 51.9727 38.7731 50.6023 35.793 49.6183C33.4871 48.857 32.4585 47.8915 31.9569 46.953C31.429 45.9655 31.2732 44.8996 31.2732 43.7744C31.2732 42.1277 31.5314 40.6857 32.2343 39.4429C32.9124 38.244 34.1967 37.1352 36.7942 36.2776C39.4944 35.3861 40.9688 34.1479 41.7187 32.7449C42.4302 31.4138 42.4299 30.0254 42.4297 28.9542L42.4297 28.8991H40.5703Z" fill="#003E73"/>
<path fill-rule="evenodd" clip-rule="evenodd" d="M43.1133 38.9233C42.5855 37.9358 42.4297 36.8699 42.4297 35.7447H40.5703C40.5703 35.763 40.5703 35.7813 40.5703 35.7998C40.5701 36.871 40.5698 38.2594 41.2813 39.5905C42.0312 40.9935 43.5056 42.2318 46.2058 43.1232C48.8033 43.9808 50.0876 45.0896 50.7657 46.2885C51.4686 47.5313 51.7268 48.9733 51.7268 50.62L53.5862 50.62C53.5862 48.9611 53.4865 47.1918 52.5802 45.5893C51.649 43.943 49.9296 42.5726 46.9495 41.5886C44.6435 40.8273 43.6149 39.8618 43.1133 38.9233Z" fill="#003E73"/>
<rect x="40.5716" y="22.4098" width="1.85677" height="35.0835" fill="#003E73"/>
<circle cx="41.5" cy="22.7426" r="5" fill="#003E73"/>
<circle cx="31.1478" cy="44.0101" r="4.5" fill="#003E73"/>
<circle cx="52.7119" cy="54.447" r="5" fill="#003E73"/>
<circle cx="41.5" cy="61.7903" r="5" fill="#003E73"/>
</svg>
