<svg width="83" height="83" viewBox="0 0 83 83" fill="none" xmlns="http://www.w3.org/2000/svg">
<path d="M34.6852 19.532C31.7862 19.532 29.4177 21.86 29.4177 24.7542V38.5319H25.398C23.8738 38.5319 22.6199 39.7572 22.6199 41.2911V60.7727C22.6199 62.3067 23.8738 63.532 25.398 63.532H57.8418C59.366 63.532 60.6199 62.3067 60.6199 60.7727V41.2911C60.6199 39.7572 59.366 38.5319 57.8418 38.5319H53.6482V24.7542C53.6482 21.86 51.2798 19.532 48.3807 19.532H34.6852ZM35.863 38.5319V26.5134C35.863 25.9098 36.3605 25.4023 36.9968 25.4023H46.0652C46.7014 25.4023 47.1989 25.9098 47.1989 26.5134V38.5319H35.863Z" fill="#E1F3F8" stroke="#003E73" stroke-width="2"/>
<path fill-rule="evenodd" clip-rule="evenodd" d="M43.3433 52.6639C44.5901 52.0591 45.4498 50.7811 45.4498 49.3023C45.4498 47.24 43.778 45.5682 41.7157 45.5682C39.6535 45.5682 37.9817 47.24 37.9817 49.3023C37.9817 50.781 38.8412 52.059 40.088 52.6638V55.4299C40.088 56.3289 40.8167 57.0576 41.7156 57.0576C42.6146 57.0576 43.3433 56.3289 43.3433 55.4299V52.6639Z" fill="#003E73"/>
</svg>
