<svg width="518" height="479" viewBox="0 0 518 479" fill="none" xmlns="http://www.w3.org/2000/svg">
<g clip-path="url(#clip0_1556_61676)">
<path d="M354.396 199.752H233.384C232.948 199.752 232.516 199.838 232.113 200.005C231.711 200.171 231.345 200.415 231.036 200.723C230.728 201.031 230.483 201.397 230.317 201.799C230.15 202.201 230.064 202.632 230.064 203.068V284.626H357.681V203.068C357.681 202.194 357.336 201.356 356.721 200.735C356.106 200.115 355.27 199.761 354.396 199.752Z" fill="#D5D7DD"/>
<path d="M155.004 167.953C137.411 110.341 118.613 -28.6483 238.083 49.3025C307.274 94.4474 345.363 11.1391 377.872 -12.4085C410.381 -35.9562 331.547 37.9349 362.431 98.8339C393.314 159.733 523.038 169.274 506.783 207.437C490.529 245.601 458.332 223.88 448.58 266.103C436.269 319.402 506.783 331.672 485.152 360.294C463.671 388.718 432.012 331.672 384.874 331.672C337.736 331.672 306.364 391.096 242.158 360.24C190.794 335.556 143.765 371.188 123.176 387.699" stroke="#AEB0B5" stroke-width="2" stroke-linecap="round" stroke-dasharray="6 6"/>
<path d="M357.681 199.752H230.064V213.634H357.681V199.752Z" fill="#003E73"/>
<path d="M237.824 209.397C237.329 209.4 236.844 209.257 236.431 208.984C236.017 208.712 235.694 208.323 235.502 207.867C235.31 207.411 235.258 206.909 235.353 206.423C235.447 205.937 235.684 205.491 236.033 205.14C236.382 204.789 236.827 204.549 237.313 204.452C237.799 204.354 238.302 204.402 238.76 204.591C239.218 204.779 239.61 205.099 239.885 205.51C240.161 205.921 240.308 206.405 240.308 206.9C240.309 207.226 240.246 207.55 240.121 207.853C239.997 208.155 239.815 208.43 239.584 208.662C239.353 208.894 239.079 209.078 238.777 209.204C238.476 209.33 238.152 209.396 237.824 209.397ZM237.824 206.856V206.9V206.856Z" fill="#D6D7D9"/>
<path d="M245.249 209.397C244.754 209.4 244.268 209.257 243.855 208.984C243.441 208.712 243.118 208.323 242.926 207.867C242.734 207.411 242.682 206.909 242.777 206.423C242.871 205.937 243.108 205.491 243.457 205.14C243.806 204.789 244.252 204.549 244.737 204.452C245.223 204.354 245.727 204.402 246.184 204.591C246.642 204.779 247.034 205.099 247.31 205.51C247.585 205.921 247.732 206.405 247.732 206.9C247.733 207.226 247.67 207.55 247.546 207.853C247.422 208.155 247.239 208.43 247.008 208.662C246.778 208.894 246.504 209.078 246.202 209.204C245.9 209.33 245.576 209.396 245.249 209.397ZM245.249 206.856V206.9V206.856Z" fill="#D6D7D9"/>
<path d="M252.647 209.397C252.151 209.402 251.665 209.26 251.251 208.988C250.836 208.717 250.512 208.329 250.318 207.873C250.125 207.417 250.072 206.914 250.166 206.428C250.259 205.942 250.495 205.495 250.844 205.143C251.193 204.791 251.638 204.551 252.124 204.452C252.61 204.354 253.114 204.402 253.572 204.59C254.031 204.778 254.423 205.098 254.699 205.509C254.974 205.921 255.122 206.404 255.122 206.899C255.124 207.558 254.865 208.191 254.401 208.659C253.937 209.127 253.307 209.392 252.647 209.397ZM252.647 206.856V206.899V206.856Z" fill="#D6D7D9"/>
<path d="M300.026 218.513C293.019 218.522 293.766 218.494 287.092 218.504H236.493V280.165H287.092C292.276 280.165 294.842 280.165 300.026 280.165H350.662V218.513H300.026Z" fill="white"/>
<path d="M330.857 218.502V229.774L334.281 226.355L337.713 229.774V218.502H330.857Z" fill="#F04E43"/>
<path d="M323.013 226.628H309.673V239.95H323.013V226.628Z" fill="#FFC420"/>
<path d="M303.123 252.354L293.69 242.934L284.258 252.354L293.69 261.774L303.123 252.354Z" fill="#4C2C92"/>
<path d="M337.164 256.754L329.665 252.461L322.202 256.806L322.225 265.431L329.725 269.724L337.195 265.382L337.164 256.754Z" fill="#757575"/>
<path d="M274.454 228.54H249.939C249.711 228.54 249.491 228.449 249.33 228.288C249.168 228.126 249.077 227.907 249.077 227.679C249.077 227.45 249.168 227.231 249.33 227.07C249.491 226.908 249.711 226.818 249.939 226.818H274.454C274.683 226.818 274.902 226.908 275.064 227.07C275.225 227.231 275.316 227.45 275.316 227.679C275.316 227.907 275.225 228.126 275.064 228.288C274.902 228.449 274.683 228.54 274.454 228.54Z" fill="#80869A"/>
<path d="M269.367 234.249H249.939C249.711 234.249 249.491 234.159 249.33 233.997C249.168 233.836 249.077 233.617 249.077 233.388C249.077 233.16 249.168 232.941 249.33 232.779C249.491 232.618 249.711 232.527 249.939 232.527H269.367C269.595 232.527 269.815 232.618 269.976 232.779C270.138 232.941 270.229 233.16 270.229 233.388C270.229 233.617 270.138 233.836 269.976 233.997C269.815 234.159 269.595 234.249 269.367 234.249Z" fill="#80869A"/>
<path d="M257.217 240.002H249.939C249.711 240.002 249.491 239.911 249.33 239.749C249.168 239.588 249.077 239.369 249.077 239.14C249.077 238.912 249.168 238.693 249.33 238.532C249.491 238.37 249.711 238.279 249.939 238.279H257.217C257.446 238.279 257.665 238.37 257.827 238.532C257.988 238.693 258.079 238.912 258.079 239.14C258.079 239.369 257.988 239.588 257.827 239.749C257.665 239.911 257.446 240.002 257.217 240.002Z" fill="#80869A"/>
<path d="M271.885 240.002H260.874C260.645 240.002 260.425 239.911 260.264 239.749C260.102 239.588 260.011 239.369 260.011 239.14C260.011 238.912 260.102 238.693 260.264 238.532C260.425 238.37 260.645 238.279 260.874 238.279H271.885C272.113 238.279 272.333 238.37 272.495 238.532C272.656 238.693 272.747 238.912 272.747 239.14C272.747 239.369 272.656 239.588 272.495 239.749C272.333 239.911 272.113 240.002 271.885 240.002Z" fill="#80869A"/>
<path d="M333.538 323.653C330.511 325.237 327.234 326.882 325.501 326.684C325.501 326.684 316.809 321.164 312.61 317.255C309.256 314.12 309.299 314.155 305.057 312.398C304.801 312.278 304.527 312.199 304.246 312.165C303.735 312.164 303.24 312.345 302.85 312.675C302.46 313.004 302.2 313.462 302.116 313.965C301.981 314.983 302.2 316.017 302.737 316.893C304.315 319.898 303.349 319.313 305.548 321.905C309.816 326.942 309.816 326.942 313.998 331.722C317.048 334.995 320.776 337.564 324.923 339.248C328.536 340.583 332.555 339.369 336.193 338.103C345.49 335.015 354.519 331.176 363.191 326.624C366.089 325.057 369.495 322.964 370.245 319.485C370.831 316.755 369.529 313.138 367.028 311.735C361.708 308.704 352.999 314.241 348.36 316.376C343.359 318.661 338.418 321.087 333.538 323.653Z" fill="#805346"/>
<path d="M307.608 305.431C307.601 304.91 307.483 304.397 307.264 303.924C307.103 303.688 306.86 303.52 306.582 303.451C306.467 303.411 306.344 303.401 306.224 303.421C306.104 303.442 305.991 303.492 305.896 303.567C305.8 303.643 305.726 303.741 305.678 303.853C305.631 303.965 305.613 304.087 305.625 304.208C305.755 305.535 306.065 306.792 306.1 308.152C306.1 308.419 306.1 308.764 305.806 308.841C305.725 308.854 305.643 308.849 305.564 308.827C305.485 308.804 305.412 308.765 305.349 308.712C304.491 307.961 303.871 306.977 303.564 305.879C302.961 304.385 302.231 302.944 301.383 301.573C301.194 301.255 300.987 300.947 300.762 300.652C300.679 300.542 300.563 300.463 300.431 300.425C300.299 300.388 300.158 300.394 300.031 300.444C299.903 300.494 299.794 300.584 299.723 300.701C299.651 300.818 299.619 300.955 299.632 301.091C299.736 302.374 300.34 302.994 301.047 304.536C301.52 305.32 301.798 306.206 301.857 307.119C301.573 307.377 301.141 307.059 300.9 306.757C299.641 305.147 298.313 302.719 297.451 301.384C297.192 300.979 296.908 300.428 296.442 300.523C295.976 300.617 295.959 301.487 296.175 302.021C296.89 303.804 298.641 306.465 299.434 308.282C299.448 308.315 299.45 308.353 299.439 308.388C299.428 308.423 299.405 308.453 299.374 308.473C299.343 308.493 299.306 308.501 299.27 308.495C299.233 308.49 299.2 308.473 299.175 308.445C298.149 307.274 297.546 306.723 296.649 305.741C295.925 304.88 295.071 303.442 294.278 302.719C294.123 302.58 293.927 302.497 293.72 302.482C293.513 302.467 293.307 302.52 293.134 302.634C292.96 302.748 292.83 302.916 292.762 303.112C292.695 303.308 292.694 303.521 292.76 303.718C292.786 303.778 292.818 303.835 292.855 303.89C293.245 304.487 293.669 305.062 294.122 305.612C295.329 306.981 296.425 308.444 297.399 309.987C297.097 310.589 296.752 310.305 296.166 309.987C295.58 309.668 295.062 309.074 294.442 308.678C294.183 308.514 293.933 308.325 293.674 308.17C293.576 308.115 293.463 308.092 293.35 308.104C293.238 308.116 293.133 308.163 293.048 308.237C292.964 308.312 292.905 308.411 292.88 308.521C292.854 308.631 292.864 308.746 292.907 308.85C293.562 310.383 295.08 311.631 296.356 312.828C297.744 314.172 297.089 315.231 301.65 319.02C302.736 319.821 303.949 320.435 305.237 320.837C308.893 321.931 310.092 317.461 309.549 314.12C309.014 311.21 307.833 308.488 307.608 305.431Z" fill="#805346"/>
<path d="M210.628 76.7988H40.9321V197.574H210.628V76.7988Z" fill="#F1F1F1"/>
<path d="M167.644 177.931C167.592 179.92 179.897 198.236 190.589 204.953C195.538 208.062 188.537 195.541 188.537 195.541C188.537 195.541 167.825 171.11 167.644 177.931Z" fill="#F5C9B6"/>
<path d="M108.423 82.62C108.017 82.726 107.655 82.9554 107.386 83.2764C107.117 83.5974 106.955 83.994 106.922 84.4112C106.922 85.7718 104.62 83.6792 104.62 83.6792L104.724 80.8547L108.423 82.62Z" fill="#F5C9B6"/>
<path d="M100.464 81.2679C100.536 81.9579 100.665 82.6406 100.852 83.3088L102.835 84.368C103.215 84.3658 103.59 84.2867 103.939 84.1355H105.12L110.604 82.4132L117.796 79.227C117.842 79.2258 117.887 79.2113 117.925 79.1854C117.963 79.1594 117.993 79.1231 118.011 79.0806L120.158 78.5381C120.244 78.4863 120.305 78.403 120.329 78.3063C120.353 78.2096 120.338 78.1072 120.288 78.0214L120.986 77.8836C120.986 77.8836 121.167 76.6866 119.399 77.0225C119.399 77.0225 119.184 76.2819 117.356 76.8244L116.752 77.0311C116.752 77.0311 115.502 77.3239 114.778 77.5822C114.778 77.5822 111.389 77.4703 110.466 77.5822L108.802 77.2808C107.959 77.2115 107.112 77.1914 106.267 77.2206L104.542 77.1603C104.542 77.1603 101.74 76.9364 101.214 78.3056C100.867 79.2658 100.615 80.2581 100.464 81.2679Z" fill="#F5C9B6"/>
<path d="M103.154 83.5326C104.312 83.5326 105.25 82.7114 105.25 81.6984C105.25 80.6853 104.312 79.8641 103.154 79.8641C101.997 79.8641 101.059 80.6853 101.059 81.6984C101.059 82.7114 101.997 83.5326 103.154 83.5326Z" fill="#F5C9B6"/>
<path d="M113.657 299.231C109.725 282.077 99.3086 243.05 96.8856 238.572C95.506 235.989 93.0657 234.267 90.2892 235.128C88.9578 235.546 87.8469 236.474 87.2003 237.709C86.5537 238.944 86.4241 240.385 86.8401 241.716C87.7024 244.488 84.8655 250.051 107.483 301.134" fill="#FFDF4F"/>
<path d="M110.561 303.433C112.352 303.433 113.803 301.983 113.803 300.195C113.803 298.407 112.352 296.957 110.561 296.957C108.77 296.957 107.319 298.407 107.319 300.195C107.319 301.983 108.77 303.433 110.561 303.433Z" fill="#FFDF4F"/>
<path d="M91.6341 244.867C94.3533 244.867 96.5577 242.666 96.5577 239.95C96.5577 237.235 94.3533 235.033 91.6341 235.033C88.9148 235.033 86.7104 237.235 86.7104 239.95C86.7104 242.666 88.9148 244.867 91.6341 244.867Z" fill="#F5C9B6"/>
<path d="M102.266 183.856C102.579 182.842 103.092 181.901 103.776 181.088C104.459 180.276 105.298 179.609 106.244 179.126C107.19 178.643 108.223 178.354 109.283 178.276C110.342 178.199 111.406 178.334 112.413 178.674C113.419 179.014 114.347 179.552 115.141 180.257C115.936 180.961 116.581 181.817 117.038 182.774C117.496 183.732 117.757 184.771 117.805 185.831C117.854 186.891 117.69 187.95 117.322 188.945C117.227 189.212 117.123 189.47 117.003 189.729C117.003 189.729 114.924 198.633 110.88 210.077C107.509 219.636 102.258 232.407 96.2217 241.793C94.7989 243.998 92.5656 245.461 90.1081 244.6C87.6507 243.739 86.659 241.233 86.9005 238.641C88.1163 225.939 91.5481 212.893 94.4713 203.851C96.5387 197.284 99.0716 190.873 102.051 184.665C102.102 184.398 102.171 184.123 102.266 183.856Z" fill="#F5C9B6"/>
<path d="M109.794 194.336C114.185 194.336 117.744 190.781 117.744 186.396C117.744 182.011 114.185 178.456 109.794 178.456C105.403 178.456 101.844 182.011 101.844 186.396C101.844 190.781 105.403 194.336 109.794 194.336Z" fill="#F5C9B6"/>
<path d="M109.794 194.336C114.185 194.336 117.744 190.781 117.744 186.396C117.744 182.011 114.185 178.456 109.794 178.456C105.403 178.456 101.844 182.011 101.844 186.396C101.844 190.781 105.403 194.336 109.794 194.336Z" fill="#F5C9B6"/>
<path d="M166.687 150.762C152.994 159.899 134.895 164.006 127.72 153.285C120.77 142.951 131.264 127.451 144.966 118.297C158.668 109.143 163.453 117.479 169.006 125.746C174.559 134.013 180.371 141.625 166.687 150.762Z" fill="#F5C9B6"/>
<path d="M132.144 166.745C141.221 166.745 148.579 159.396 148.579 150.331C148.579 141.267 141.221 133.918 132.144 133.918C123.067 133.918 115.709 141.267 115.709 150.331C115.709 159.396 123.067 166.745 132.144 166.745Z" fill="#F5C9B6"/>
<path d="M96.4714 156.376C108.94 143.253 122.478 141.875 130.419 149.401C138.361 156.928 137.706 170.499 125.246 183.631C112.786 196.764 106.81 190.159 98.8686 182.633C90.927 175.106 83.9943 169.509 96.4714 156.376Z" fill="#F5C9B6"/>
<path d="M109.682 193.922C114.072 193.922 117.632 190.368 117.632 185.983C117.632 181.598 114.072 178.043 109.682 178.043C105.291 178.043 101.731 181.598 101.731 185.983C101.731 190.368 105.291 193.922 109.682 193.922Z" fill="#F5C9B6"/>
<path d="M94.833 179.532C99.2238 179.532 102.783 175.978 102.783 171.593C102.783 167.208 99.2238 163.653 94.833 163.653C90.4422 163.653 86.8828 167.208 86.8828 171.593C86.8828 175.978 90.4422 179.532 94.833 179.532Z" fill="#F5C9B6"/>
<path d="M94.5488 179.179C98.9396 179.179 102.499 175.625 102.499 171.24C102.499 166.855 98.9396 163.3 94.5488 163.3C90.1581 163.3 86.5986 166.855 86.5986 171.24C86.5986 175.625 90.1581 179.179 94.5488 179.179Z" fill="#F5C9B6"/>
<path d="M94.5488 179.179C98.9396 179.179 102.499 175.625 102.499 171.24C102.499 166.855 98.9396 163.3 94.5488 163.3C90.1581 163.3 86.5986 166.855 86.5986 171.24C86.5986 175.625 90.1581 179.179 94.5488 179.179Z" fill="#F5C9B6"/>
<path d="M192.469 206.908C192.469 206.908 169.8 179.506 168.144 177.147C167.738 176.587 167.447 175.953 167.287 175.28C167.127 174.607 167.101 173.91 167.212 173.228C167.323 172.545 167.567 171.891 167.931 171.303C168.295 170.715 168.772 170.205 169.334 169.801C171.697 168.079 178.457 165.229 178.526 168.131C178.638 173.298 197.41 203.748 197.41 203.748" fill="#F5C9B6"/>
<path d="M194.84 208.131C196.455 208.131 197.763 206.824 197.763 205.212C197.763 203.599 196.455 202.292 194.84 202.292C193.226 202.292 191.917 203.599 191.917 205.212C191.917 206.824 193.226 208.131 194.84 208.131Z" fill="#F5C9B6"/>
<path d="M194.849 208.114C196.463 208.114 197.772 206.807 197.772 205.195C197.772 203.582 196.463 202.275 194.849 202.275C193.235 202.275 191.926 203.582 191.926 205.195C191.926 206.807 193.235 208.114 194.849 208.114Z" fill="#F5C9B6"/>
<path d="M198.919 204.592L196.539 202.826L192.288 205.048L192.676 206.77C192.428 208.688 192.783 210.635 193.693 212.342C194.521 213.639 195.259 214.991 195.901 216.389L202.393 209.845L202.868 208.036L198.919 204.592Z" fill="#F5C9B6"/>
<path d="M198.712 210.843C197.825 210.839 196.947 210.666 196.125 210.335C196.108 210.328 196.093 210.317 196.08 210.304C196.067 210.291 196.057 210.275 196.05 210.258C196.043 210.241 196.04 210.222 196.04 210.204C196.04 210.185 196.044 210.167 196.052 210.15C196.059 210.133 196.07 210.118 196.083 210.105C196.096 210.092 196.112 210.082 196.129 210.075C196.146 210.068 196.165 210.065 196.183 210.065C196.202 210.066 196.22 210.07 196.237 210.077C197.022 210.391 197.858 210.554 198.703 210.559C199.517 210.576 200.32 210.377 201.031 209.982C201.065 209.965 201.104 209.961 201.14 209.971C201.177 209.98 201.209 210.003 201.23 210.034C201.246 210.066 201.25 210.104 201.24 210.139C201.231 210.174 201.208 210.204 201.178 210.223C200.425 210.643 199.574 210.857 198.712 210.843Z" fill="#EBBEAE"/>
<path d="M196.03 213.625C196.016 213.631 196.002 213.634 195.987 213.634C195.972 213.634 195.957 213.631 195.944 213.625C195.931 213.613 195.92 213.598 195.913 213.582C195.906 213.566 195.902 213.548 195.902 213.53C195.902 213.513 195.906 213.495 195.913 213.479C195.92 213.462 195.931 213.448 195.944 213.436C196.318 212.943 196.797 212.537 197.345 212.249C197.893 211.96 198.498 211.795 199.117 211.765C199.408 211.763 199.697 211.798 199.979 211.868C199.997 211.871 200.015 211.878 200.03 211.888C200.045 211.898 200.058 211.911 200.068 211.927C200.078 211.942 200.084 211.96 200.087 211.978C200.089 211.996 200.088 212.014 200.083 212.032C200.079 212.05 200.071 212.068 200.06 212.083C200.049 212.098 200.035 212.111 200.019 212.121C200.003 212.131 199.985 212.137 199.966 212.139C199.947 212.142 199.928 212.14 199.91 212.135C199.662 212.077 199.407 212.048 199.151 212.049C198.578 212.084 198.018 212.24 197.51 212.507C197.002 212.775 196.556 213.147 196.202 213.599C196.18 213.621 196.152 213.636 196.12 213.641C196.089 213.645 196.058 213.64 196.03 213.625Z" fill="#EBBEAE"/>
<path d="M199.255 209.475C199.748 209.622 200.265 209.669 200.777 209.611C201.288 209.554 201.782 209.393 202.23 209.139C203.609 208.278 204.817 208.148 204.291 207.347C203.049 205.427 196.927 203.3 195.668 204.325C193.9 205.78 196.746 209.139 199.255 209.475Z" fill="#EBBEAE"/>
<path d="M204.144 215.055C204.144 215.055 202.945 214.796 204.144 213.022L204.713 213.255L204.144 215.055Z" fill="#F5C9B6"/>
<path d="M201.126 225.164C205.75 225.164 209.499 221.421 209.499 216.803C209.499 212.185 205.75 208.441 201.126 208.441C196.502 208.441 192.753 212.185 192.753 216.803C192.753 221.421 196.502 225.164 201.126 225.164Z" fill="#0071BC"/>
<path d="M205.532 211.326C205.626 211.595 205.636 211.887 205.562 212.162C205.488 212.438 205.332 212.684 205.115 212.87C204.898 213.056 204.63 213.172 204.347 213.204C204.063 213.236 203.776 213.181 203.523 213.048C203.343 212.955 203.183 212.827 203.053 212.672C202.923 212.517 202.825 212.337 202.764 212.144L201.695 208.544C201.6 208.216 201.628 207.864 201.773 207.554C201.856 207.384 201.973 207.232 202.115 207.108C202.258 206.983 202.424 206.888 202.603 206.828C202.783 206.768 202.973 206.744 203.162 206.758C203.351 206.772 203.535 206.823 203.704 206.908C204.053 207.089 204.319 207.398 204.446 207.769L205.532 211.326Z" fill="#EBBEAE"/>
<path d="M203.765 206.9C203.897 206.965 204.014 207.058 204.108 207.173C204.201 207.287 204.27 207.42 204.308 207.563C204.383 207.924 204.339 208.3 204.184 208.635C204.029 208.97 203.77 209.246 203.446 209.423C203.298 209.509 203.131 209.558 202.96 209.567C202.79 209.576 202.619 209.544 202.463 209.474L199.764 208.2L196.884 207.011C196.763 206.944 196.657 206.853 196.573 206.743C196.488 206.634 196.427 206.508 196.392 206.374C196.203 205.694 196.548 204.652 197.255 204.514C198.514 204.316 203.765 206.9 203.765 206.9Z" fill="#EBBEAE"/>
<path d="M204.825 214.443C204.739 214.788 204.325 215.881 204.325 215.881C204.325 215.881 201.557 215.08 202.394 212.824L202.756 211.36L202.972 210.792C203.075 210.482 203.075 210.792 203.368 210.585C203.528 210.483 203.707 210.415 203.894 210.383C204.081 210.351 204.273 210.357 204.458 210.4C204.643 210.444 204.817 210.523 204.97 210.635C205.124 210.747 205.253 210.888 205.351 211.05C205.552 211.377 205.62 211.769 205.541 212.144L204.825 214.443Z" fill="#EBBEAE"/>
<path d="M167.282 177.001L157.797 141.246C157.429 139.998 157.33 138.686 157.505 137.396C157.68 136.107 158.127 134.868 158.814 133.763C159.488 132.687 160.383 131.767 161.44 131.064C162.497 130.36 163.692 129.889 164.945 129.681C166.194 129.472 167.474 129.523 168.702 129.831C169.931 130.139 171.083 130.698 172.085 131.472C173.112 132.257 173.968 133.243 174.599 134.37C175.231 135.497 175.625 136.741 175.758 138.026L179.026 174.908C179.141 175.852 179.027 176.809 178.692 177.699C178.358 178.589 177.813 179.385 177.105 180.02C176.396 180.655 175.545 181.109 174.623 181.345C173.701 181.581 172.736 181.592 171.809 181.375C170.727 181.127 169.733 180.588 168.936 179.817C168.138 179.046 167.566 178.073 167.282 177.001Z" fill="#F5C9B6"/>
<path d="M167.101 146.052C171.515 146.052 175.094 142.478 175.094 138.069C175.094 133.66 171.515 130.086 167.101 130.086C162.686 130.086 159.107 133.66 159.107 138.069C159.107 142.478 162.686 146.052 167.101 146.052Z" fill="#F5C9B6"/>
<path d="M103.508 85.8406C105.113 85.8406 106.414 84.5413 106.414 82.9385C106.414 81.3358 105.113 80.0365 103.508 80.0365C101.903 80.0365 100.602 81.3358 100.602 82.9385C100.602 84.5413 101.903 85.8406 103.508 85.8406Z" fill="#F5C9B6"/>
<path d="M106.465 82.3787C106.465 82.3787 115.83 119.055 116.408 121.914C116.663 123.285 116.364 124.701 115.577 125.853C114.791 127.005 113.579 127.799 112.208 128.062C109.345 128.596 106.957 126.624 106.043 123.868C99.8346 105.078 100.671 82.9471 100.671 82.9471" fill="#F5C9B6"/>
<path d="M103.594 85.8407C105.208 85.8407 106.517 84.5337 106.517 82.9214C106.517 81.3092 105.208 80.0022 103.594 80.0022C101.98 80.0022 100.671 81.3092 100.671 82.9214C100.671 84.5337 101.98 85.8407 103.594 85.8407Z" fill="#F5C9B6"/>
<path d="M109.018 124.575C108.749 123.848 108.623 123.076 108.647 122.301C108.68 120.784 109.297 119.338 110.369 118.264C111.442 117.189 112.888 116.569 114.407 116.532L151.416 114.301C152.708 114.242 153.999 114.448 155.209 114.905C156.419 115.363 157.523 116.063 158.452 116.962C159.354 117.838 160.068 118.888 160.548 120.049C161.029 121.21 161.266 122.457 161.246 123.714C161.224 124.983 160.932 126.233 160.391 127.382C159.85 128.531 159.072 129.552 158.107 130.379C157.114 131.224 155.952 131.849 154.699 132.213C153.446 132.576 152.13 132.67 150.838 132.489L114.036 128.39C112.932 128.267 111.882 127.848 110.998 127.176C110.114 126.504 109.43 125.605 109.018 124.575Z" fill="#F5C9B6"/>
<path d="M152.873 131.438C157.288 131.438 160.866 127.864 160.866 123.455C160.866 119.046 157.288 115.472 152.873 115.472C148.459 115.472 144.88 119.046 144.88 123.455C144.88 127.864 148.459 131.438 152.873 131.438Z" fill="#F5C9B6"/>
<path d="M114.243 113.122L113.769 116.807C113.769 116.807 118.218 117.668 118.572 117.668C118.925 117.668 120.409 116.032 119.891 116.093C116.994 116.48 115.175 115.206 114.243 113.122Z" fill="#F5C9B6"/>
<path d="M125.505 129.328C125.505 129.328 113.959 130.189 111.234 129.165C108.164 127.968 106.397 125.6 106.06 124.11C105.724 122.62 124.099 126.168 125.03 126.168C125.962 126.168 125.505 129.328 125.505 129.328Z" fill="#F5C9B6"/>
<path d="M166.48 121.604C168.869 122.809 172.378 120.269 172.671 120.002C174.163 118.641 175.189 120.209 176.198 121.311C177.207 122.413 176.81 124.411 175.336 125.772C172.749 128.157 176.87 131.059 174.318 131.877C171.766 132.695 166.083 133.599 165.264 129.294C164.859 127.227 164.626 120.665 166.48 121.604Z" fill="#E8B690"/>
<path d="M175.315 125.776C177.087 124.16 177.707 121.955 176.698 120.853C175.69 119.75 173.436 120.166 171.663 121.783C169.891 123.399 169.271 125.603 170.28 126.706C171.288 127.809 173.542 127.392 175.315 125.776Z" fill="#E8B690"/>
<path d="M171.464 120.966L175.042 116.721L180.897 121.715L177.362 125.875C175.819 127.718 173.249 128.114 171.619 126.736C170.833 125.986 170.376 124.956 170.347 123.87C170.318 122.785 170.719 121.732 171.464 120.94V120.966Z" fill="#E8B690"/>
<path d="M187.977 128.329C184.26 133.091 177.146 133.737 174.18 131.447L173.395 130.844C171.188 129.122 169.179 121.371 172.895 116.601L177.267 109.832C180.984 105.07 187.459 103.907 192.116 107.524C196.772 111.141 197.16 118.013 193.443 122.775L187.977 128.329Z" fill="#F5C9B6"/>
<path d="M193.193 122.775C192.529 123.567 198.367 119.847 196.642 112.269C194.918 104.691 185.493 103.055 182.449 103.494C180.843 103.782 179.315 104.403 177.964 105.317C176.612 106.231 175.467 107.417 174.603 108.799C173.964 109.927 171.309 116.23 171.636 116.807C172.076 117.574 172.714 117.203 173.438 116.394C174.775 114.896 176.37 111.899 177.345 112.019C178.845 112.2 178.75 113.449 178.086 114.241C177.422 115.033 175.654 117.935 176.206 118.4C176.379 118.538 176.327 118.59 176.706 118.185C177.569 117.229 179.854 114.741 180.233 113.208C180.768 111.046 183.984 109.867 185.588 110.478C194.875 114 196.151 119.253 193.193 122.775Z" fill="#4D3A35"/>
<path d="M174.421 116.902C174.233 116.775 174.072 116.613 173.947 116.424C173.821 116.235 173.735 116.024 173.691 115.801C173.648 115.579 173.649 115.35 173.695 115.128C173.74 114.906 173.829 114.695 173.956 114.508L175.482 112.097C175.596 111.906 175.747 111.74 175.927 111.609C176.106 111.478 176.31 111.384 176.526 111.334C176.743 111.283 176.967 111.276 177.187 111.314C177.406 111.352 177.615 111.434 177.802 111.554C178.171 111.818 178.425 112.214 178.51 112.66C178.595 113.105 178.505 113.567 178.259 113.948L176.767 116.368C176.654 116.563 176.502 116.734 176.32 116.868C176.139 117.002 175.931 117.097 175.711 117.147C175.491 117.197 175.263 117.201 175.041 117.159C174.819 117.117 174.608 117.029 174.421 116.902Z" fill="#F5C9B6"/>
<path d="M97.2306 153.621C100.49 156.204 105.172 162.232 108.992 164.928C112.812 167.623 102.559 182.151 99.1793 187.24C89.9184 201.113 84.055 197.574 84.055 197.574H45.7871C69.9136 166.667 97.2306 153.621 97.2306 153.621Z" fill="#003E73"/>
<path d="M109.569 158.908C108.492 161.793 128.367 180.678 128.367 180.678C128.367 180.678 107.112 221.487 107.112 234.551C107.201 237.628 107.527 240.694 108.086 243.722C108.362 245.349 110.759 249.268 111.122 251.059C111.915 255.046 110.803 255.485 110.725 256.958C110.578 259.997 113.424 261.737 113.924 263.752C114.269 265.138 113.751 267.877 113.855 269.289C114.071 272.329 116.571 274.266 116.994 275.584C117.637 277.685 117.891 279.885 117.744 282.077C117.744 284.66 120.555 288.966 121.271 289.397C123.995 291.033 108.957 298.938 101.921 300.023C100.3 300.273 84.2961 242.998 82.2267 235.179C75.5095 209.784 90.4873 177.483 96.4887 169.509C103.033 160.811 109.569 158.908 109.569 158.908Z" fill="#003E73"/>
<path d="M173.568 132.54C172.473 131.343 167.11 132.136 165.333 127.787C164.902 126.647 164.756 125.419 164.906 124.21C165.056 123.001 165.499 121.846 166.196 120.846C166.196 120.846 160.97 110.624 145.923 113.19C143.681 113.569 130.92 113.466 128.048 115.404C125.177 117.341 128.911 127.167 128.911 127.167C128.911 127.167 108.647 141.436 106.06 143.744C103.474 146.052 97.8083 150.452 97.1961 153.621C94.7214 166.495 124.918 191.726 130.204 184.519C136.24 176.355 135.438 177.044 145.466 165.47C149.778 160.441 159.901 153.294 162.358 162.749C162.358 162.749 180.958 163.912 179.526 161.655C177.629 158.667 184.191 144.243 173.568 132.54Z" fill="#EF6F5D"/>
<path opacity="0.67" d="M78.9847 197.582H84.0548C85.2965 192.054 89.2285 181.746 92.3499 176.562C92.3499 176.553 77.4929 191.528 78.9847 197.582Z" fill="#000C34" fill-opacity="0.2"/>
<path d="M115.545 291.541C115.482 291.54 115.42 291.523 115.366 291.492C115.311 291.46 115.266 291.415 115.235 291.36C113.881 288.932 109.716 276.213 106.267 261.815C103.275 249.354 100.128 232.794 102.119 224.699C105.569 210.663 113.493 197.427 115.347 196.187C115.428 196.137 115.524 196.12 115.617 196.139C115.711 196.158 115.793 196.212 115.847 196.29C115.899 196.37 115.918 196.468 115.898 196.561C115.879 196.655 115.823 196.737 115.743 196.79C114.252 197.78 106.388 210.336 102.809 224.872C99.2308 239.408 113.113 286.09 115.856 291.007C115.899 291.092 115.908 291.19 115.881 291.282C115.854 291.373 115.792 291.451 115.709 291.498C115.658 291.524 115.602 291.539 115.545 291.541Z" fill="#000C34"/>
<path d="M118.261 197.797C116.804 197.797 115.123 196.712 113.674 194.818C112.01 192.639 110.673 189.289 111.656 187.067C111.702 186.993 111.774 186.938 111.858 186.912C111.942 186.886 112.032 186.892 112.112 186.927C112.192 186.963 112.257 187.027 112.293 187.106C112.33 187.186 112.337 187.276 112.312 187.36C111.449 189.203 112.657 192.277 114.243 194.361C115.675 196.23 117.296 197.229 118.555 197.031C118.649 197.018 118.745 197.042 118.822 197.099C118.899 197.155 118.952 197.238 118.968 197.332C118.981 197.426 118.956 197.52 118.9 197.596C118.844 197.671 118.76 197.722 118.667 197.737C118.534 197.769 118.398 197.789 118.261 197.797Z" fill="#000C34"/>
<path d="M83.6924 165.134C83.3466 165.135 83.001 165.115 82.6577 165.074C82.6112 165.069 82.5663 165.055 82.5253 165.032C82.4844 165.01 82.4483 164.98 82.4191 164.943C82.3898 164.907 82.3681 164.865 82.355 164.82C82.3419 164.775 82.3378 164.729 82.3429 164.682C82.348 164.636 82.3622 164.591 82.3847 164.55C82.4072 164.509 82.4375 164.473 82.4739 164.444C82.5104 164.415 82.5522 164.393 82.597 164.38C82.6419 164.367 82.6888 164.363 82.7353 164.368C85.3123 164.575 87.8771 163.841 89.9525 162.301C89.9897 162.272 90.0323 162.251 90.0777 162.239C90.1231 162.227 90.1705 162.224 90.2171 162.231C90.2637 162.237 90.3085 162.253 90.3489 162.277C90.3894 162.301 90.4246 162.332 90.4527 162.37C90.4816 162.408 90.5029 162.451 90.5151 162.497C90.5273 162.543 90.5303 162.591 90.5239 162.638C90.5175 162.686 90.5018 162.731 90.4777 162.772C90.4537 162.813 90.4217 162.849 90.3837 162.878C88.4402 164.302 86.1027 165.091 83.6924 165.134Z" fill="#000C34"/>
<path d="M187.683 111.356C188.097 116.669 191.382 122.232 193.46 123.033C199.108 125.194 202.6 121.018 201.54 120.829C197.349 120.079 197.539 115.334 196.668 112.269C194.53 104.708 190.227 108.308 189.321 109.203C188.699 109.86 188.15 110.582 187.683 111.356Z" fill="#4D3A35"/>
<path d="M172.783 134.108C172.559 134.108 167.273 133.961 164.229 130.663C161.427 127.606 163.367 122.654 164.04 120.794L164.229 120.278C164.261 120.188 164.326 120.113 164.411 120.07C164.496 120.026 164.595 120.018 164.686 120.045C164.731 120.06 164.773 120.083 164.809 120.114C164.845 120.145 164.874 120.183 164.895 120.226C164.916 120.268 164.928 120.315 164.931 120.362C164.934 120.409 164.927 120.457 164.91 120.502C164.867 120.639 164.798 120.82 164.712 121.053C164.04 122.775 162.255 127.451 164.764 130.181C167.601 133.272 172.748 133.41 172.8 133.41C172.847 133.41 172.894 133.419 172.938 133.438C172.981 133.456 173.02 133.483 173.053 133.516C173.086 133.55 173.112 133.59 173.129 133.634C173.147 133.678 173.155 133.725 173.154 133.772C173.147 133.865 173.105 133.951 173.036 134.014C172.967 134.076 172.876 134.11 172.783 134.108Z" fill="#000C34"/>
<path opacity="0.67" d="M127.815 123.395C127.953 124.024 128.936 127.167 128.936 127.167C133.86 124.342 134.972 123.516 140.905 122.276L127.815 123.395Z" fill="#000C34" fill-opacity="0.2"/>
<path d="M102.921 305.724C102.654 306.809 98.3599 309.625 97.8253 312.329C97.2907 315.033 98.1616 317.375 99.9724 317.745C101.783 318.116 107.276 318.038 111.786 312.441C113.251 310.632 117.433 308.135 117.563 307.136C117.62 306.723 117.562 306.303 117.396 305.92C117.231 305.538 116.963 305.208 116.623 304.966C116.088 304.647 116.623 302.589 115.416 300.85C114.209 299.11 114.209 297.276 113.691 297.819C113.174 298.361 113.967 300.531 113.424 301.72C112.881 302.908 113.157 302.047 112.751 301.177C112.346 300.307 111.811 299.989 110.337 299.877C108.862 299.765 106.715 299.334 105.905 299.773C105.094 300.213 103.197 304.604 102.921 305.724Z" fill="#555D78"/>
<path d="M350.602 138.895C350.602 153.121 354.826 167.027 362.739 178.854C370.653 190.682 381.901 199.901 395.061 205.344C408.221 210.787 422.702 212.211 436.672 209.435C450.642 206.659 463.474 199.809 473.546 189.749C483.617 179.69 490.476 166.874 493.254 152.922C496.031 138.969 494.604 124.508 489.152 111.366C483.7 98.2241 474.468 86.9919 462.623 79.09C450.779 71.1881 436.854 66.9714 422.61 66.9731C413.153 66.9731 403.789 68.8335 395.052 72.448C386.315 76.0626 378.376 81.3605 371.689 88.0392C365.003 94.7179 359.699 102.647 356.08 111.373C352.462 120.099 350.6 129.451 350.602 138.895Z" fill="#D4FFEE"/>
<path d="M412.824 158.96C414.859 168.476 421.671 177.5 427.422 176.269C433.174 175.038 435.709 164.032 433.674 154.517C431.639 145.001 427.146 146.818 421.386 148.041C415.626 149.264 410.789 149.445 412.824 158.96Z" fill="#E8B690"/>
<path d="M433.587 156.144C436.202 156.144 438.321 154.027 438.321 151.416C438.321 148.805 436.202 146.688 433.587 146.688C430.973 146.688 428.854 148.805 428.854 151.416C428.854 154.027 430.973 156.144 433.587 156.144Z" fill="#F04E25"/>
<path d="M416.04 149.436C418.429 148.179 417.816 146.723 417.765 146.43C417.446 144.923 418.808 143.373 420.352 143.055C421.895 142.736 423.732 143.597 424.059 145.113C424.611 147.774 429.061 145.974 428.319 148.024C427.577 150.073 425.137 154.353 421.007 153.44C418.989 153.001 414.203 150.4 416.04 149.436Z" fill="#E8B690"/>
<path d="M420.308 143.055C419.766 143.171 419.271 143.445 418.885 143.843C418.499 144.241 418.24 144.744 418.141 145.288C418.041 145.833 418.106 146.395 418.326 146.903C418.546 147.411 418.913 147.842 419.379 148.143C419.844 148.443 420.389 148.598 420.943 148.589C421.498 148.58 422.037 148.407 422.493 148.092C422.949 147.777 423.301 147.334 423.504 146.819C423.708 146.304 423.754 145.74 423.637 145.199" fill="#E8B690"/>
<path d="M418.317 146.207L417.566 142.59L423.257 141.436L423.973 144.992C424.053 145.363 424.059 145.746 423.99 146.12C423.922 146.493 423.781 146.849 423.575 147.167C423.368 147.486 423.101 147.761 422.789 147.977C422.476 148.192 422.124 148.344 421.753 148.424C421.381 148.504 420.998 148.51 420.624 148.441C420.25 148.373 419.894 148.232 419.575 148.026C419.256 147.82 418.98 147.553 418.765 147.241C418.549 146.929 418.396 146.578 418.317 146.207Z" fill="#E8B690"/>
<path d="M405.779 138.861L406.046 134.728C405.555 132.695 404.891 132.661 404.675 130.422C404.097 124.514 404.951 123.076 410.366 120.088C410.366 120.088 419.903 115.645 425.715 125.996C428.215 130.456 429.647 138.594 422.033 144.829C418.506 147.713 412.72 146.775 408.995 141.022L406.684 140.247C406.391 140.165 406.137 139.979 405.971 139.724C405.804 139.469 405.736 139.162 405.779 138.861Z" fill="#F3BF97"/>
<path d="M364.114 228.42C364.114 228.42 391.517 201.078 393.914 199.012C395.064 198.018 396.563 197.522 398.08 197.632C398.831 197.686 399.564 197.888 400.237 198.225C400.91 198.562 401.51 199.028 402.002 199.597C402.495 200.166 402.87 200.826 403.107 201.54C403.345 202.254 403.439 203.007 403.384 203.757C403.33 204.507 403.128 205.239 402.79 205.912C402.452 206.584 401.985 207.183 401.416 207.675C399.019 209.741 367.968 232.872 367.968 232.872" fill="#F5C9B6"/>
<path d="M366.037 233.586C367.66 233.586 368.977 232.272 368.977 230.65C368.977 229.028 367.66 227.713 366.037 227.713C364.413 227.713 363.096 229.028 363.096 230.65C363.096 232.272 364.413 233.586 366.037 233.586Z" fill="#F5C9B6"/>
<path d="M478.814 177.096C476.882 177.518 465.957 177.741 448.574 168.966C447.789 168.57 447.91 168.656 447.125 168.243C445.202 167.244 441.52 164.936 441.52 164.936C440.206 164.584 438.982 163.958 437.928 163.098C436.874 162.239 436.015 161.166 435.407 159.95C434.819 158.763 434.489 157.465 434.438 156.141C434.388 154.817 434.618 153.498 435.114 152.269C436.123 149.789 433.027 146.551 437.002 146.026C439.692 145.664 442.805 145.543 445.254 146.723L483.074 164.437C484.518 165.092 485.655 166.279 486.246 167.75C486.837 169.221 486.837 170.862 486.247 172.334C485.939 173.095 485.485 173.788 484.91 174.374C483.306 176.002 481.392 176.553 478.814 177.096Z" fill="#0071BC"/>
<path fill-rule="evenodd" clip-rule="evenodd" d="M490.636 124.471C490.308 126.581 493.223 128.114 494.732 127.683C496.241 127.253 496.818 125.315 496.327 123.223C495.835 121.13 493.887 120.2 493.119 120.45C492.352 120.699 490.946 122.361 490.636 124.471Z" fill="#F5C9B6"/>
<path fill-rule="evenodd" clip-rule="evenodd" d="M488.963 113.182C488.828 113.203 488.698 113.25 488.582 113.321C488.465 113.393 488.364 113.486 488.284 113.597C488.204 113.707 488.146 113.832 488.115 113.965C488.083 114.098 488.078 114.235 488.101 114.37L488.687 118.745C488.707 118.88 488.754 119.01 488.825 119.127C488.895 119.244 488.989 119.346 489.1 119.426C489.211 119.506 489.337 119.563 489.47 119.594C489.604 119.625 489.742 119.629 489.877 119.606C490.012 119.585 490.141 119.537 490.258 119.466C490.374 119.395 490.476 119.302 490.556 119.191C490.636 119.081 490.694 118.955 490.725 118.823C490.756 118.69 490.761 118.552 490.739 118.417L490.144 114.043C490.125 113.908 490.08 113.778 490.009 113.661C489.939 113.544 489.846 113.443 489.736 113.362C489.626 113.282 489.501 113.225 489.368 113.194C489.235 113.163 489.097 113.159 488.963 113.182Z" fill="#F5C9B6"/>
<path fill-rule="evenodd" clip-rule="evenodd" d="M487.834 110.142C487.524 110.177 487.24 110.331 487.043 110.573C486.846 110.814 486.752 111.123 486.782 111.434L487.566 117.461C487.582 117.613 487.628 117.759 487.701 117.892C487.774 118.026 487.873 118.143 487.991 118.239C488.11 118.334 488.246 118.405 488.392 118.447C488.538 118.49 488.691 118.503 488.842 118.486C489.15 118.445 489.431 118.287 489.625 118.045C489.82 117.803 489.913 117.495 489.886 117.186L489.101 111.158C489.085 111.008 489.039 110.863 488.967 110.73C488.894 110.598 488.796 110.481 488.679 110.387C488.561 110.292 488.426 110.222 488.281 110.18C488.136 110.138 487.984 110.125 487.834 110.142Z" fill="#F5C9B6"/>
<path fill-rule="evenodd" clip-rule="evenodd" d="M489.705 117.272C491.765 119.434 492.619 124.006 494.257 122.198C495.896 120.389 494.551 126.564 494.551 126.564L490.808 125.143C490.808 125.143 487.101 121.19 489.705 117.272Z" fill="#F5C9B6"/>
<path fill-rule="evenodd" clip-rule="evenodd" d="M488.144 116.101C490.153 118.306 492.309 126.9 493.999 125.126C495.689 123.352 494.197 129.492 494.197 129.492L490.032 131.653C490.032 131.653 485.842 118.65 488.144 116.101Z" fill="#F5C9B6"/>
<path fill-rule="evenodd" clip-rule="evenodd" d="M493.447 122.431C494.102 122.336 495.835 123.292 495.697 122.68L494.335 116.161C494.284 115.85 494.115 115.57 493.863 115.379C493.611 115.188 493.295 115.102 492.981 115.137C492.666 115.182 492.382 115.349 492.189 115.602C491.997 115.855 491.913 116.174 491.955 116.489L492.093 121.397C492.146 121.708 492.315 121.988 492.566 122.18C492.817 122.372 493.132 122.461 493.447 122.431Z" fill="#F5C9B6"/>
<path fill-rule="evenodd" clip-rule="evenodd" d="M490.04 131.645L489.859 127.046L496.292 123.102L497.085 125.918C497.198 126.318 497.198 126.741 497.085 127.141L496.602 130.189" fill="#F5C9B6"/>
<path d="M490.92 128.863C490.92 128.863 475.977 164.557 474.977 167.554C474.711 168.273 474.592 169.037 474.627 169.803C474.663 170.568 474.851 171.319 475.182 172.01C475.513 172.701 475.98 173.319 476.554 173.827C477.129 174.335 477.799 174.722 478.526 174.967C479.254 175.211 480.022 175.307 480.787 175.249C481.552 175.192 482.298 174.981 482.98 174.63C483.662 174.28 484.267 173.796 484.758 173.208C485.25 172.619 485.618 171.938 485.841 171.205C486.85 168.2 496.499 130.732 496.499 130.732" fill="#F5C9B6"/>
<path d="M493.714 132.738C495.338 132.738 496.654 131.424 496.654 129.802C496.654 128.18 495.338 126.865 493.714 126.865C492.09 126.865 490.773 128.18 490.773 129.802C490.773 131.424 492.09 132.738 493.714 132.738Z" fill="#F5C9B6"/>
<path d="M495.266 136.346C495.387 136.639 487.67 168.484 486.644 171.481C486.066 173.113 484.868 174.453 483.309 175.212C481.75 175.97 479.956 176.086 478.312 175.534C476.669 174.983 475.308 173.808 474.525 172.263C473.741 170.719 473.597 168.928 474.123 167.278C474.244 166.925 472.899 160.071 474.684 160.51C476.098 160.863 476.408 159.924 476.977 158.564C480.815 148.79 487.601 133.341 487.825 133.238C489.567 132.48 494.551 134.607 495.266 136.346Z" fill="#0071BC"/>
<path d="M395.423 208.243C393.904 207.813 392.6 206.832 391.766 205.493C390.932 204.154 390.628 202.552 390.913 201.001L397.812 163.033C398.017 161.687 398.508 160.399 399.251 159.257C399.995 158.115 400.974 157.145 402.123 156.411C403.237 155.693 404.491 155.219 405.802 155.022C407.114 154.824 408.452 154.908 409.728 155.266C412.315 155.989 409.496 159.485 410.754 161.897C412.013 164.308 416.42 163.249 411.315 169.707C411.315 169.707 409.03 195.731 406.434 203.98C405.201 207.899 399.717 210.87 397.519 211.231C396.648 211.369 396.303 208.493 395.423 208.243Z" fill="#0B639E"/>
<path d="M366.804 222.392C366.804 222.142 382.109 206.59 388.93 199.46C391.181 197.117 392.621 189.694 393.241 188.893C394.276 187.472 396.518 196.73 398.277 196.868C399.141 196.933 399.984 197.168 400.757 197.558C401.53 197.949 402.219 198.488 402.783 199.145C403.348 199.801 403.777 200.562 404.047 201.385C404.317 202.207 404.422 203.075 404.356 203.937C404.218 205.66 404.589 206.082 403.58 207.528C401.856 210 375.392 230.641 375.082 230.616C373.064 230.418 366.589 224.381 366.804 222.392Z" fill="#0B639E"/>
<path d="M427.078 119.283C428.524 116.783 427.345 113.401 424.446 111.73C421.546 110.058 418.024 110.729 416.579 113.229C415.134 115.73 416.312 119.111 419.212 120.783C422.111 122.455 425.633 121.783 427.078 119.283Z" fill="#000617"/>
<path d="M411.254 116.17C417.911 113.827 431.397 115.309 429.742 131.92C429.382 133.075 428.652 134.08 427.664 134.779C424.74 136.105 418.351 126.968 413.867 128.277C412.35 128.725 410.823 129.75 409.961 129.139C409.099 128.527 407.995 124.54 407.995 124.54C408.17 126.296 408.458 128.039 408.857 129.759C408.906 129.931 408.899 130.113 408.839 130.281C408.779 130.45 408.668 130.595 408.521 130.697C408.5 130.717 408.472 130.728 408.443 130.728C408.414 130.728 408.387 130.717 408.366 130.697L407.555 128.174C407.532 128.98 407.616 129.785 407.805 130.568C407.837 130.7 407.826 130.839 407.774 130.965C407.721 131.09 407.629 131.196 407.512 131.266C407.176 131.446 406.865 131.627 406.555 131.817C406.417 132.299 406.029 132.592 405.555 133.169C405.404 133.203 405.261 133.265 405.132 133.35L404.598 132.626C404.438 132.404 404.299 132.168 404.184 131.92C401.45 125.436 403.942 118.727 411.254 116.17Z" fill="#171D2E"/>
<path d="M420.588 134.763L421.203 134.514C422.218 134.102 422.707 132.947 422.295 131.934L421.64 130.322C421.227 129.308 420.071 128.82 419.056 129.232L418.441 129.481C417.426 129.893 416.937 131.048 417.349 132.062L418.005 133.673C418.417 134.687 419.573 135.175 420.588 134.763Z" fill="#F3BF97"/>
<path d="M417.204 126.34C417.321 126.73 417.359 127.14 417.316 127.546V128.234C417.126 128.191 416.929 128.191 416.739 128.234C416.739 128.234 418.463 129.216 418.463 129.225C418.938 130.31 417.765 130.723 418.049 131.808C418.584 133.858 417.937 135.787 418.317 137.225C418.442 137.91 418.722 138.558 419.136 139.119C419.136 139.119 417.687 137.974 417.601 134.547C417.417 132.077 416.518 129.713 415.014 127.744" fill="#171D2E"/>
<path d="M422.266 157.608C417.721 157.608 413.117 154.611 412.013 152.751C411.987 152.709 411.969 152.662 411.962 152.613C411.954 152.564 411.956 152.513 411.968 152.465C411.98 152.417 412.002 152.372 412.032 152.332C412.062 152.292 412.099 152.259 412.143 152.234C412.228 152.186 412.328 152.173 412.423 152.197C412.518 152.221 412.6 152.281 412.651 152.364C413.66 154.086 418.842 157.487 423.602 156.764C427.422 156.178 430 153.139 431.276 147.739C431.309 147.653 431.371 147.581 431.453 147.537C431.534 147.493 431.629 147.481 431.719 147.502C431.809 147.523 431.888 147.577 431.942 147.652C431.995 147.727 432.019 147.82 432.009 147.911C430.285 155.05 426.568 157.065 423.714 157.505C423.234 157.573 422.75 157.608 422.266 157.608Z" fill="#000C34"/>
<path d="M364.045 227.559L366.632 226.043L370.624 228.712L370.046 230.435C370.093 232.368 369.535 234.267 368.451 235.869C367.506 237.073 366.642 238.339 365.864 239.658L359.44 233.302L359.811 230.624L364.045 227.559Z" fill="#F5C9B6"/>
<path d="M364.26 233.828C363.126 233.856 362.014 233.511 361.096 232.846C361.082 232.833 361.072 232.818 361.065 232.801C361.057 232.784 361.054 232.765 361.054 232.747C361.054 232.728 361.057 232.71 361.065 232.693C361.072 232.676 361.082 232.661 361.096 232.648C361.123 232.623 361.158 232.609 361.195 232.609C361.232 232.609 361.267 232.623 361.294 232.648C363.32 234.198 366.123 233.328 366.149 233.311C366.185 233.302 366.224 233.307 366.257 233.324C366.29 233.342 366.316 233.371 366.33 233.406C366.341 233.442 366.337 233.482 366.319 233.515C366.301 233.549 366.271 233.575 366.235 233.587C365.591 233.758 364.927 233.839 364.26 233.828Z" fill="#EBBEAE"/>
<path d="M363.191 232.372C362.686 232.468 362.166 232.46 361.663 232.349C361.161 232.238 360.686 232.026 360.268 231.726C358.992 230.71 357.819 230.469 358.414 229.728C359.846 227.946 366.175 226.473 367.296 227.627C368.908 229.263 365.718 232.303 363.191 232.372Z" fill="#EBBEAE"/>
<path d="M363.967 236.893L370.978 243.868L361.423 246.443L351.861 249.018L354.405 239.468L356.957 229.909L363.967 236.893Z" fill="#02BFE7"/>
<path d="M356.759 233.552C356.629 233.89 356.629 234.264 356.759 234.603C356.821 234.783 356.919 234.948 357.047 235.09C357.175 235.231 357.33 235.345 357.503 235.425C357.676 235.506 357.863 235.551 358.054 235.557C358.244 235.564 358.434 235.532 358.613 235.464C358.806 235.395 358.982 235.287 359.13 235.146C359.279 235.005 359.396 234.835 359.475 234.646L360.923 231.201C361.036 230.886 361.036 230.543 360.923 230.228C360.86 230.048 360.761 229.882 360.632 229.74C360.504 229.599 360.348 229.485 360.174 229.405C360.001 229.324 359.813 229.28 359.621 229.273C359.43 229.267 359.24 229.298 359.061 229.367C358.701 229.502 358.408 229.77 358.242 230.116" fill="#EBBEAE"/>
<path d="M358.975 229.341C358.836 229.39 358.709 229.47 358.605 229.574C358.5 229.678 358.42 229.804 358.371 229.943C358.256 230.291 358.255 230.667 358.368 231.015C358.482 231.364 358.703 231.667 359.001 231.881C359.138 231.981 359.297 232.047 359.465 232.074C359.633 232.101 359.805 232.088 359.966 232.036L362.786 231.046L365.77 230.185C366.026 230.07 366.227 229.86 366.33 229.599C366.589 228.936 366.33 227.877 365.701 227.661C364.476 227.36 358.975 229.341 358.975 229.341Z" fill="#EBBEAE"/>
<path d="M357.129 236.712C357.181 237.057 357.474 238.202 357.474 238.202C357.474 238.202 360.311 237.694 359.716 235.36L359.509 233.862L359.363 233.276C359.294 232.958 359.259 233.276 358.992 233.027C358.843 232.91 358.672 232.823 358.489 232.772C358.306 232.722 358.115 232.708 357.927 232.731C357.738 232.754 357.557 232.814 357.392 232.908C357.227 233.001 357.082 233.127 356.966 233.276C356.73 233.583 356.622 233.968 356.664 234.353L357.129 236.712Z" fill="#EBBEAE"/>
<path opacity="0.67" d="M441.874 162.594C442.253 159.804 443.331 149.229 444.081 151.864C447.798 164.936 459.232 173.599 459.232 173.599C459.232 173.599 441.227 167.304 441.874 162.594Z" fill="#000C34" fill-opacity="0.2"/>
<path d="M351.413 312.406C361.406 322.085 357.112 315.851 362.044 316.781C367.218 317.771 372.435 316.023 377.669 315.635C383.601 315.188 383.265 315.911 388.439 318.847C390.327 319.915 388.68 320.854 389.793 322.723C390.384 323.637 390.713 324.697 390.744 325.786C390.774 326.874 390.505 327.951 389.965 328.897C388.309 331.394 384.791 331.678 381.816 331.48C378.514 331.291 385.076 331.911 381.773 331.722C374.996 331.343 368.175 331.98 361.432 331.179C354.689 330.378 350.352 326.968 346.161 321.638C344.264 319.226 342.126 316.746 340.91 313.887C339.186 309.831 335.193 299.575 333.451 295.519C332.037 292.23 337.668 294.193 339.927 295.519C343.35 297.526 348.602 309.685 351.413 312.406Z" fill="#805346"/>
<path d="M328.864 285.788C328.864 285.788 330.683 287.106 331.321 285.392L331.968 283.67C332.027 283.54 332.059 283.399 332.061 283.257C332.064 283.114 332.037 282.972 331.982 282.84C331.928 282.709 331.847 282.589 331.744 282.49C331.641 282.391 331.519 282.314 331.385 282.263C331.252 282.213 331.109 282.191 330.966 282.198C330.824 282.205 330.684 282.241 330.556 282.305C330.428 282.368 330.314 282.457 330.222 282.566C330.129 282.675 330.06 282.801 330.019 282.938L328.864 285.788Z" fill="#664238"/>
<path d="M331.976 275.92C331.832 275.796 331.658 275.712 331.472 275.676C331.285 275.64 331.092 275.653 330.912 275.713C330.732 275.774 330.571 275.881 330.444 276.023C330.318 276.165 330.231 276.337 330.192 276.523C330.163 276.743 330.199 276.967 330.293 277.169C330.388 277.37 330.538 277.54 330.726 277.659L332.64 279.64L333.141 280.501C333.546 280.82 333.141 279.072 333.537 278.701C333.934 278.331 334.132 278.477 333.736 278.064C333.736 278.064 334.598 280.079 334.744 278.641L333.115 277.082L331.976 275.92Z" fill="#805346"/>
<path d="M330.881 286.779C330.881 286.969 330.93 287.156 331.025 287.32C331.119 287.485 331.255 287.622 331.419 287.718C331.583 287.814 331.77 287.865 331.96 287.867C332.15 287.868 332.337 287.82 332.503 287.726C332.687 287.603 332.833 287.43 332.923 287.227C333.013 287.025 333.044 286.8 333.011 286.581L332.934 284.755C332.939 284.479 332.835 284.212 332.643 284.012C332.452 283.813 332.189 283.698 331.912 283.692C331.635 283.686 331.368 283.79 331.168 283.982C330.968 284.173 330.853 284.436 330.847 284.712C330.843 284.758 330.843 284.804 330.847 284.85L330.881 286.779Z" fill="#664238"/>
<path d="M332.675 287.261C332.724 287.445 332.819 287.612 332.951 287.748C333.083 287.884 333.248 287.984 333.43 288.038C333.612 288.091 333.805 288.097 333.99 288.055C334.175 288.012 334.346 287.923 334.486 287.795C334.634 287.629 334.732 287.424 334.769 287.205C334.805 286.986 334.779 286.76 334.693 286.555L334.184 284.833C334.123 284.563 333.956 284.329 333.722 284.182C333.487 284.036 333.204 283.988 332.934 284.049C332.664 284.111 332.43 284.277 332.283 284.511C332.136 284.745 332.088 285.028 332.149 285.298C332.149 285.341 332.149 285.384 332.149 285.427L332.675 287.261Z" fill="#664238"/>
<path d="M336.219 284.574C335.814 284.368 334.21 283.257 334.21 283.257L336.219 284.574Z" fill="#EDC8B5"/>
<path d="M337.409 283.722C337.409 283.722 339.841 292.85 341.445 297.431L336.806 301.479C335.898 298.779 334.337 296.344 332.261 294.391C329.045 291.627 329.011 288.295 328.2 287.502C327.389 286.71 328.381 287.149 328.381 287.149L329.873 286.064C329.873 286.064 331.399 288.071 333.201 287.408" fill="#805346"/>
<path d="M329.968 289.474C330.658 289.474 331.218 288.915 331.218 288.225C331.218 287.536 330.658 286.977 329.968 286.977C329.277 286.977 328.717 287.536 328.717 288.225C328.717 288.915 329.277 289.474 329.968 289.474Z" fill="#F4C8B5"/>
<path d="M328.226 286.848C328.916 286.848 329.476 286.289 329.476 285.599C329.476 284.909 328.916 284.35 328.226 284.35C327.535 284.35 326.976 284.909 326.976 285.599C326.976 286.289 327.535 286.848 328.226 286.848Z" fill="#F4C8B5"/>
<path d="M329.502 285.685C329.502 284.092 328.941 283.455 328.303 283.205C328.167 283.143 328.018 283.114 327.868 283.121C327.718 283.127 327.572 283.168 327.441 283.241C327.31 283.314 327.198 283.416 327.115 283.54C327.031 283.664 326.977 283.806 326.958 283.954L327.01 285.677C327.014 285.809 327.046 285.939 327.104 286.057C327.162 286.176 327.244 286.281 327.346 286.366C327.6 286.563 327.913 286.669 328.234 286.669C328.556 286.669 328.868 286.563 329.122 286.366C329.243 286.273 329.34 286.155 329.408 286.019C329.475 285.883 329.51 285.734 329.51 285.582L329.502 285.685Z" fill="#805346"/>
<path d="M329.26 284.893C329.085 284.635 328.821 284.448 328.519 284.368C328.359 284.328 328.193 284.32 328.03 284.344C327.868 284.368 327.711 284.425 327.57 284.509C327.429 284.594 327.306 284.706 327.209 284.838C327.111 284.971 327.041 285.121 327.001 285.281C326.957 285.45 326.95 285.626 326.98 285.799C327.01 285.971 327.076 286.135 327.174 286.279L329.493 289.853C329.674 290.083 329.925 290.247 330.209 290.318C330.449 290.376 330.701 290.362 330.934 290.278C331.166 290.193 331.368 290.043 331.515 289.844C331.662 289.646 331.748 289.409 331.761 289.162C331.774 288.916 331.714 288.671 331.589 288.458L331.054 287.597L329.26 284.893Z" fill="#805346"/>
<path d="M335.107 284.712C335.107 284.712 336.581 282.714 334.771 282.465L331.244 282.137C330.973 282.081 330.691 282.135 330.46 282.287C330.228 282.439 330.067 282.676 330.011 282.947C329.955 283.218 330.009 283.499 330.161 283.73C330.313 283.961 330.55 284.122 330.821 284.178C330.867 284.182 330.913 284.182 330.959 284.178L335.107 284.712Z" fill="#664238"/>
<path d="M331.425 276.015L334.745 278.667L337.228 283.041C337.462 283.584 337.568 284.173 337.538 284.764L337.495 284.841L336.029 289C335.994 289.148 335.929 289.287 335.84 289.41C335.75 289.533 335.637 289.637 335.508 289.716C335.378 289.795 335.234 289.848 335.084 289.871C334.934 289.895 334.78 289.889 334.632 289.853C334.485 289.817 334.345 289.753 334.223 289.664C334.1 289.574 333.996 289.462 333.916 289.332C333.837 289.203 333.784 289.059 333.761 288.909C333.737 288.759 333.743 288.606 333.779 288.458L334.012 287.554L332.209 288.251L332.08 287.735C334.719 287.252 333.908 282.335 333.606 281.354L333.529 281.181L332.666 279.597C332.666 279.597 332.666 279.597 332.666 279.537L330.942 276.264" fill="#805346"/>
<path d="M347.041 377.147C344.454 376.217 331.227 376.432 326.915 378.869C322.604 381.306 324.328 386.921 324.328 388.419C324.328 389.918 341.764 397.22 341.764 397.22L347.041 377.147Z" fill="#D5D7DD"/>
<path d="M354.396 450.318C354.396 450.318 362.156 455.071 377.41 449.457C377.367 449.422 357.845 447.7 354.396 450.318Z" fill="#80869A"/>
<path d="M376.815 301.952C383.205 298.379 384.645 288.949 382.851 287.046C380.394 284.402 381.377 281.457 377.815 280.682C375.798 280.234 372.538 279.39 370.814 280.51C367.107 283.042 364.242 286.622 362.588 290.792C362.051 291.586 361.404 292.3 360.665 292.91C360.544 293.008 360.447 293.13 360.378 293.268C360.309 293.406 360.271 293.558 360.266 293.712C360.261 293.867 360.29 294.02 360.35 294.163C360.409 294.305 360.499 294.433 360.613 294.538L361.165 295.055C360.933 295.964 360.763 296.887 360.656 297.819C360.32 301.367 360.734 303.39 365.562 304.958C366.216 305.165 366.889 305.304 367.571 305.371L367.485 306.697C367.485 306.809 367.434 306.887 367.434 306.887V307.352C365.716 308.583 363.616 309.163 361.51 308.988C363.512 310.157 365.637 311.101 367.847 311.804L368.339 312.579C368.732 312.372 369.149 312.216 369.581 312.114C371.426 312.252 374.116 315.877 376.168 314.327C376.634 314.18 377.815 312.191 377.781 312.183L379.247 310.374C379.488 310.168 379.514 309.108 379.755 308.867C379.755 308.867 374.97 309.505 375.03 307.868L375.091 306.146V305.922V304.915C375.091 304.846 375.22 305.009 375.091 304.915L376.582 302.047L376.815 301.952Z" fill="#805346"/>
<path d="M367.382 458.791C366.839 458.912 367.873 449.414 367.313 447.089C366.606 444.143 360.415 446.115 358.785 446.632C358.578 446.701 358.509 442.886 357.742 445.203C357.224 446.761 359.311 456.682 359.259 457.922C359.251 459.094 359.498 460.255 359.984 461.323C360.018 461.378 360.063 461.426 360.116 461.463C360.17 461.5 360.23 461.526 360.294 461.538L364.476 462.339C364.564 462.356 364.654 462.346 364.737 462.313C364.819 462.279 364.89 462.223 364.942 462.15L367.382 458.791Z" fill="#664E3D"/>
<path d="M349.222 456.785C349.033 455.786 347.851 448.079 347.722 444.884C347.593 441.853 339.763 446.813 338.082 447.864C337.883 447.993 337.996 446.426 338.082 446.649C338.608 448.475 341.212 458.042 340.798 459.567C340.384 461.091 343.333 462.107 344.161 462.288C344.267 462.322 344.382 462.322 344.489 462.288C345.351 461.892 346.11 465.862 345.972 465.732C345.834 465.603 349.973 461.013 349.222 456.785Z" fill="#664E3D"/>
<path d="M384.3 346.542C384.3 346.542 395.509 374.185 396.035 378.172C397.699 389.849 398.217 381.056 395.018 406.417C393.845 415.709 375.763 406.314 371.046 404.497C363.389 401.534 380.574 444.583 377.212 449.517C377.401 449.594 370.632 454.77 354.353 450.318C353.775 450.163 347.868 429.797 348.437 400.63C348.8 381.78 361.216 412.953 360.371 404.979C360.035 401.905 368.071 408.01 367.27 405.702C366.468 403.394 366.174 404.212 365.899 406.486C365.148 412.617 343.704 380.462 341.074 393.19C340.694 395.024 350.429 424.415 350.869 429.263C351.731 434.895 352.964 442.025 351.559 445.573V444.962C351.559 449.112 340.134 451.851 337.564 452.161C334.995 452.471 326.975 451.058 326.975 451.058C320.845 439.002 323.595 399.838 323.837 393.457C323.983 389.668 338.823 402.128 339.099 398.822C339.418 394.972 334.494 385.474 338.349 387.394C346.463 391.45 348.567 362.628 348.567 361.5L384.3 346.542Z" fill="#D5D7DD"/>
<path d="M367.657 313.13C366.912 311.912 365.922 310.861 364.749 310.045C363.577 309.228 362.248 308.663 360.846 308.385C359.416 308.092 357.941 308.094 356.511 308.39C355.082 308.686 353.728 309.27 352.533 310.107L340.125 319.123L346.023 335.295L363.018 331.059C365.743 329.819 367.873 324.169 368.735 321.379C369.148 320.006 369.266 318.561 369.08 317.139C368.894 315.718 368.409 314.351 367.657 313.13Z" fill="#61F290"/>
<path fill-rule="evenodd" clip-rule="evenodd" d="M376.488 279.511C374.536 279 372.471 279.137 370.605 279.902C368.738 280.666 367.171 282.016 366.14 283.748C368.037 284.721 367.598 287.304 368.546 288.165C372.056 291.352 371.262 293.083 369.529 296.777C368.477 299.016 368.503 300.816 365.89 302.254C365.08 302.701 378.255 306.18 384.705 302.77C386.43 301.832 385.999 299.266 386.688 297.328C387.551 294.986 391.983 283.102 376.488 279.511Z" fill="#2B3556"/>
<path d="M370.391 292.092C370.692 292.065 370.994 292.117 371.268 292.244C371.542 292.37 371.778 292.565 371.953 292.811C372.127 293.057 372.234 293.344 372.263 293.644C372.291 293.944 372.241 294.246 372.116 294.521C370.538 300.118 367.537 297.56 367.537 297.56L370.391 292.092Z" fill="#805346"/>
<path d="M335.762 449.457C333.001 449.466 330.253 449.089 327.596 448.337C327.513 448.298 327.447 448.23 327.41 448.145C327.374 448.06 327.369 447.965 327.398 447.878C327.427 447.79 327.486 447.716 327.565 447.669C327.645 447.622 327.739 447.606 327.829 447.623C327.95 447.666 340.134 451.515 349.309 444.454C349.388 444.394 349.487 444.368 349.586 444.381C349.684 444.394 349.773 444.445 349.834 444.523C349.865 444.561 349.888 444.606 349.901 444.653C349.914 444.701 349.917 444.751 349.911 444.8C349.904 444.849 349.888 444.896 349.863 444.938C349.838 444.981 349.805 445.018 349.766 445.048C345.717 448.029 340.791 449.58 335.762 449.457Z" fill="#000C34"/>
<path opacity="0.2" d="M387.775 375.141C387.775 375.141 394.061 388.919 386.645 391.64C385.084 392.217 379.583 395.696 376.738 386.749L375.28 378.585C379.634 378.286 383.884 377.115 387.775 375.141Z" fill="#80869A"/>
<path d="M365.122 449.104C361.629 449.178 358.167 448.441 355.008 446.951C354.923 446.899 354.861 446.816 354.835 446.72C354.81 446.624 354.822 446.521 354.87 446.434C354.894 446.392 354.926 446.354 354.965 446.324C355.004 446.294 355.048 446.272 355.096 446.259C355.143 446.246 355.192 446.243 355.241 446.249C355.289 446.256 355.336 446.272 355.379 446.296C355.465 446.296 363.881 450.955 375.642 446.296C375.732 446.271 375.828 446.279 375.912 446.32C375.996 446.361 376.062 446.432 376.097 446.518C376.132 446.604 376.134 446.701 376.103 446.788C376.072 446.876 376.009 446.949 375.927 446.994C372.493 448.378 368.825 449.094 365.122 449.104Z" fill="#000C34"/>
<path opacity="0.67" fill-rule="evenodd" clip-rule="evenodd" d="M348.619 361.216C348.55 361.879 348.058 366.624 347.963 368.019C347.842 369.663 383.067 373.186 389.758 361.19C393.716 354.111 348.619 361.216 348.619 361.216Z" fill="#000C34" fill-opacity="0.2"/>
<path d="M364.743 308.703C365.554 308.703 366.468 309.513 370.779 309.565C371.805 309.565 373.771 308.893 374.884 308.824C377.192 308.702 379.507 308.847 381.782 309.255C385.86 309.995 387.818 310.34 390.612 313.397C393.802 316.841 393.362 330.723 393.362 330.723C393.362 330.723 391.638 350.159 392.69 358.563C364.234 366.925 363.734 364.488 348.567 361.5C350.481 347.859 351.904 338.602 351.576 324.824C351.49 321.293 351.352 317.634 352.697 314.37C354.042 311.106 357.345 308.342 360.846 308.85" fill="#61F290"/>
<path d="M370.107 311.838C368.144 311.829 366.192 311.539 364.312 310.977C364.217 310.945 364.137 310.879 364.089 310.791C364.041 310.703 364.029 310.6 364.053 310.503C364.085 310.409 364.152 310.33 364.24 310.283C364.329 310.237 364.432 310.226 364.528 310.253C370.564 312.045 374.625 310.572 375.185 310.012C375.255 309.943 375.35 309.904 375.448 309.904C375.547 309.904 375.642 309.943 375.711 310.012C375.781 310.082 375.82 310.176 375.82 310.275C375.82 310.374 375.781 310.468 375.711 310.538C375.151 311.08 373.09 311.838 370.107 311.838Z" fill="#000C34"/>
<path d="M373.03 424.139C360.096 424.139 347.162 418.378 334.521 406.994C325.829 399.183 317.275 395.799 308.411 396.72C293.114 398.262 282.008 411.833 281.628 412.324C280.065 414.577 277.67 416.118 274.97 416.607C272.269 417.097 269.484 416.495 267.228 414.933C264.972 413.372 263.43 410.98 262.94 408.283C262.45 405.586 263.053 402.806 264.616 400.552C264.762 400.337 280.301 379.239 305.479 376.251C320.586 374.46 335.012 379.635 348.36 391.631C357.621 399.95 366.382 403.92 374.409 403.429C386.904 402.671 397.053 391.028 401.925 385.431C403.726 383.363 406.275 382.094 409.013 381.903C411.751 381.713 414.452 382.616 416.523 384.415C418.594 386.213 419.864 388.76 420.055 391.494C420.246 394.228 419.341 396.926 417.541 398.994C411.341 406.115 396.846 422.77 375.668 424.062C374.789 424.113 373.909 424.139 373.03 424.139Z" fill="#F99D1C"/>
<path d="M352.352 463.924C352.352 463.924 353.784 463.743 354.258 464.785C354.732 465.827 351.723 467.153 348.946 469.254C347.834 470.116 343.488 474.344 341.798 475.515C338.875 477.564 335.615 477.969 334.037 477.556C330.14 476.522 345.851 467.3 345.851 467.3L352.352 463.924Z" fill="#E7E9EE"/>
<path fill-rule="evenodd" clip-rule="evenodd" d="M354.086 464.863C353.473 464.492 353.68 466.37 352.404 466.585C350.861 466.809 349.076 467.627 346.144 469.513C343.212 471.399 336.711 476.006 336.167 476.29C335.624 476.574 333.831 477.539 333.581 477.263C333.423 477.077 333.307 476.859 333.24 476.624C333.173 476.39 333.157 476.144 333.193 475.902C333.262 475.377 338.668 472.415 339.03 471.442C339.392 470.469 344.48 466.421 346.567 465.319C348.653 464.217 353.241 462.736 353.465 463.003C353.689 463.27 354.698 465.224 354.086 464.863Z" fill="#E7E9EE"/>
<path d="M353.965 463.778C353.715 462.796 352.835 458.223 349.593 455.003C348.334 453.763 343.687 458.688 342.954 459.179C342.095 459.564 341.182 459.811 340.246 459.911C340.246 459.911 335.805 468.523 334.969 469.771C333.766 471.422 333.049 473.376 332.899 475.412C332.899 477.616 335.874 474.68 336.349 474.37C337.012 473.913 341.384 470.426 342.384 469.53C344.984 467.619 347.786 465.999 350.74 464.699C351.799 464.338 352.875 464.031 353.965 463.778Z" fill="#2B3556"/>
<path d="M369.917 465.939C369.917 465.939 371.202 465.982 371.478 466.955C371.754 467.928 368.891 468.678 366.166 470.133C365.08 470.71 360.647 473.836 359 474.628C356.146 476.014 353.223 475.92 351.887 475.326C348.601 473.862 363.717 467.98 363.717 467.98L369.917 465.939Z" fill="#E7E9EE"/>
<path fill-rule="evenodd" clip-rule="evenodd" d="M371.314 467.007C370.822 466.602 370.736 468.273 369.589 468.256C368.201 468.256 366.519 468.703 363.674 469.978C360.828 471.252 354.456 474.353 353.939 474.525C353.421 474.697 351.714 475.291 351.507 475.016C351.397 474.827 351.328 474.619 351.303 474.402C351.277 474.186 351.297 473.967 351.361 473.758C351.498 473.311 356.664 471.468 357.129 470.658C357.595 469.849 362.63 467.024 364.614 466.353C366.597 465.681 370.848 465.035 371.029 465.285C371.21 465.534 371.796 467.42 371.314 467.007Z" fill="#E7E9EE"/>
<path d="M371.357 466.042C371.279 465.138 371.15 460.996 368.77 457.707C367.839 456.441 363.062 460.118 362.346 460.445C361.537 460.664 360.699 460.754 359.863 460.712C359.863 460.712 354.732 467.653 353.827 468.626C352.545 469.91 351.649 471.527 351.24 473.293C350.921 475.239 353.947 473.078 354.404 472.863C355.051 472.553 359.38 470.107 360.44 469.461C362.997 468.152 365.689 467.124 368.468 466.395C369.424 466.228 370.388 466.11 371.357 466.042Z" fill="#2B3556"/>
<path opacity="0.67" fill-rule="evenodd" clip-rule="evenodd" d="M348.869 417.483C352.456 427.98 360.57 447.76 361.717 451.782C361.717 451.782 354.551 450.482 354.353 450.318C353.409 447.824 352.668 445.258 352.137 442.645C351.904 441.595 351.136 430.176 350.481 427.902C349.506 424.511 348.964 421.01 348.869 417.483Z" fill="#000C34" fill-opacity="0.2"/>
<path d="M445.254 146.723C439.166 145.07 431.044 146.62 429.121 147.111C429.368 148.672 429.022 150.269 428.148 151.587C427.275 152.905 425.939 153.849 424.404 154.232C420.42 155.283 415.885 154.637 413.608 150.693C411.185 151.554 400.976 152.915 399.096 160.519C401.433 166.409 405.011 172.428 406.443 178.542C408.762 188.463 407.9 199.029 407.409 209.182C412.407 210.256 417.506 210.798 422.619 210.801C435.39 210.818 447.935 207.429 458.955 200.984C453.342 184.622 447.444 170.766 447.444 170.766L445.254 146.723Z" fill="#0071BC"/>
<path opacity="0.67" d="M351.542 333.995L356.31 332.824L351.326 337.733L351.542 333.995Z" fill="#000C34" fill-opacity="0.2"/>
<path opacity="0.67" d="M407.909 197.22L407.486 182.865C407.486 182.865 409.211 192.424 409.607 194.456C410.004 196.488 410.125 209.655 410.125 209.655C409.205 209.599 408.293 209.458 407.4 209.233C407.719 208.725 407.909 197.22 407.909 197.22Z" fill="#000C34" fill-opacity="0.2"/>
<path d="M99.9724 317.702C101.697 317.995 107.276 317.995 111.786 312.398C113.251 310.589 117.433 308.092 117.563 307.093C117.62 306.68 117.562 306.26 117.396 305.877C117.231 305.495 116.963 305.165 116.623 304.923C116.088 304.604 110.337 311.709 109.181 313.474C107.043 316.729 99.6016 317.642 99.9724 317.702Z" fill="#80869A"/>
<path d="M33.5914 32.1487L37.7306 39.9347L45.7868 43.9351L37.7306 47.9355L33.5914 55.7215L29.4521 47.9355L21.396 43.9351L29.4521 39.9347L33.5914 32.1487Z" fill="#FDB81E"/>
<path d="M267.28 259.973V264.288C267.28 264.666 267.147 264.986 266.882 265.251C266.617 265.515 266.295 265.647 265.916 265.647H260.805V270.741C260.805 271.119 260.672 271.439 260.407 271.704C260.142 271.968 259.82 272.1 259.441 272.1H255.111C254.731 272.1 254.41 271.968 254.144 271.704C253.879 271.439 253.746 271.119 253.746 270.741V265.647H248.636C248.256 265.647 247.935 265.515 247.669 265.251C247.404 264.987 247.271 264.666 247.271 264.288V259.973C247.271 259.595 247.404 259.275 247.669 259.01C247.935 258.746 248.256 258.614 248.636 258.614H253.746V253.52C253.746 253.142 253.879 252.822 254.144 252.557C254.41 252.293 254.733 252.161 255.111 252.161H259.44C259.819 252.161 260.141 252.293 260.406 252.557C260.671 252.822 260.804 253.142 260.804 253.52V258.614H265.915C266.294 258.614 266.616 258.746 266.881 259.01C267.147 259.275 267.28 259.596 267.28 259.973Z" fill="#1DB954"/>
<path d="M192.753 308.682C192.504 308.682 192.294 308.595 192.121 308.423L183.167 299.764C183.071 299.688 182.939 299.563 182.772 299.39C182.604 299.218 182.34 298.904 181.976 298.448C181.612 297.992 181.287 297.525 181 297.046C180.713 296.567 180.458 295.987 180.233 295.306C180.007 294.625 179.896 293.964 179.896 293.321C179.896 291.212 180.503 289.563 181.718 288.373C182.932 287.184 184.612 286.59 186.755 286.59C187.348 286.59 187.953 286.693 188.57 286.899C189.187 287.105 189.761 287.383 190.293 287.733C190.823 288.083 191.28 288.411 191.663 288.718C192.046 289.025 192.409 289.351 192.754 289.696C193.098 289.35 193.462 289.025 193.844 288.718C194.227 288.411 194.684 288.083 195.215 287.733C195.745 287.383 196.32 287.105 196.937 286.899C197.553 286.693 198.159 286.59 198.751 286.59C200.894 286.59 202.573 287.184 203.788 288.373C205.003 289.563 205.611 291.212 205.611 293.321C205.611 295.44 204.515 297.598 202.325 299.794L193.386 308.424C193.213 308.597 193.002 308.682 192.753 308.682Z" fill="#981B1E"/>
<path d="M117.95 368.522L125.734 385.409L143.55 392.786L125.734 400.164L117.95 417.051L110.166 400.164L92.3501 392.786L110.166 385.409L117.95 368.522Z" fill="#D65555"/>
<ellipse cx="492.408" cy="437.099" rx="17.7873" ry="17.7263" fill="#02BFE7"/>
</g>
<defs>
<clipPath id="clip0_1556_61676">
<rect width="518" height="479" fill="white"/>
</clipPath>
</defs>
</svg>
