<svg width="82" height="82" viewBox="0 0 82 82" fill="none" xmlns="http://www.w3.org/2000/svg">
<path d="M57.6819 23.469C58.0554 23.5489 58.4524 23.9455 58.5328 24.319C59.005 26.5134 59.005 28.2326 58.9988 29.9517C58.9988 36.9707 55.2107 41.2151 50.2501 44.3806V51.5193C50.2501 52.6321 49.4359 53.9498 48.4409 54.4478L42.6926 56.8248C42.4623 56.929 42.2138 56.9874 41.9611 56.9968C41.5261 56.9967 41.1089 56.8238 40.8013 56.5162C40.4937 56.2085 40.3208 55.7913 40.3208 55.3563V48.2476C40.3208 46.5073 39.6295 44.8383 38.399 43.6077C37.1684 42.3772 35.4995 41.6858 33.7592 41.6858H26.6552C26.2202 41.6856 25.803 41.5127 25.4954 41.2051C25.1878 40.8975 25.0149 40.4803 25.0148 40.0453C25.0239 39.7925 25.0824 39.544 25.1868 39.3136L27.5642 33.5605C28.0624 32.5642 29.3814 31.7492 30.4952 31.7492H37.6163C40.7742 26.7733 45.0043 23 52.0582 23C53.7697 23 55.4885 23 57.6819 23.469Z" fill="#E1F3F8"/>
<path d="M24.0115 55.8125C24.1389 47.5628 26.7156 45.873 30.0023 45.873C31.6969 45.873 33.3126 46.5849 34.334 47.6114C37.8264 51.1212 37.9191 57.7559 26.1875 57.9841V58H24V55.8125H24.0115Z" fill="#E1F3F8"/>
<path d="M49.598 28.3615C48.7976 28.3614 48.0152 28.5987 47.3498 29.0434C46.6843 29.488 46.1656 30.1199 45.8593 30.8593C45.553 31.5988 45.4728 32.4124 45.629 33.1973C45.7851 33.9823 46.1705 34.7034 46.7364 35.2693C47.3023 35.8352 48.0233 36.2206 48.8083 36.3768C49.5932 36.5329 50.4069 36.4528 51.1463 36.1465C51.8857 35.8402 52.5177 35.3216 52.9623 34.6561C53.407 33.9907 53.6443 33.2083 53.6443 32.4079C53.6438 31.3349 53.2174 30.306 52.4587 29.5472C51.6999 28.7884 50.671 28.362 49.598 28.3615ZM49.598 34.1422C49.255 34.1422 48.9196 34.0405 48.6344 33.85C48.3492 33.6594 48.1269 33.3886 47.9956 33.0717C47.8644 32.7548 47.83 32.4061 47.8969 32.0697C47.9638 31.7333 48.129 31.4243 48.3715 31.1817C48.614 30.9392 48.923 30.774 49.2594 30.707C49.5959 30.6401 49.9446 30.6745 50.2615 30.8057C50.5784 30.937 50.8492 31.1592 51.0398 31.4444C51.2303 31.7296 51.3321 32.0649 51.3321 32.4079C51.3316 32.8677 51.1487 33.3085 50.8236 33.6337C50.4985 33.9588 50.0577 34.1417 49.598 34.1422ZM59.5061 23.3944C59.4211 22.9996 59.0014 22.5802 58.6066 22.4958C56.2879 22 54.4708 22 52.6615 22C45.2046 22 40.7327 25.9889 37.3944 31.2492H29.8664C28.6889 31.2492 27.2946 32.1107 26.7678 33.1639L23.1975 40.303C23.0871 40.5465 23.0253 40.8092 23.0157 41.0764C23.0158 41.5363 23.1985 41.9773 23.5237 42.3025C23.8489 42.6277 24.2899 42.8105 24.7498 42.8107H32.2597C34.0994 42.8107 35.8638 43.5416 37.1646 44.8425C38.4655 46.1434 39.1963 47.9077 39.1962 49.7475V57.2624C39.1963 57.7223 39.379 58.1633 39.7042 58.4885C40.0294 58.8137 40.4704 58.9965 40.9303 58.9966C41.1974 58.9867 41.4601 58.925 41.7037 58.8148L48.8375 55.2449C49.8894 54.7184 50.7501 53.3253 50.7501 52.149V44.6023C55.9942 41.256 59.9987 36.769 59.9987 29.3489C60.0053 27.5316 60.0053 25.7142 59.5061 23.3944ZM25.685 40.4983L28.8359 34.1981C28.9697 33.9303 29.5669 33.5614 29.8664 33.5614H36.0147C35.0077 35.5892 33.723 38.1861 32.5782 40.4983L32.5829 40.5311C32.4731 40.5272 27.4095 40.4983 25.685 40.4983ZM48.4379 52.149C48.4379 52.4475 48.0699 53.0433 47.8028 53.177L41.5083 56.327C41.5083 54.5997 41.4791 49.5297 41.475 49.4177L41.5015 49.4211C43.8138 48.2774 46.4013 46.9937 48.4289 45.9856L48.4379 45.9857L48.4379 52.149ZM41.0612 47.0533C40.6186 45.6126 39.8296 44.3023 38.7634 43.2371C37.6972 42.1719 36.3861 41.3842 34.945 40.9429C38.7048 33.4283 42.1549 24.3122 52.6615 24.3122C54.1909 24.3122 55.6458 24.3122 57.3891 24.6148C57.6974 26.3764 57.692 27.8223 57.6865 29.3489C57.6865 39.8253 48.5103 43.3295 41.0612 47.0533ZM30.4024 45.1229C26.9279 45.1229 23.1468 47.9664 23.0121 56.6875H23V59H25.3125V58.9832C37.7145 58.742 38.6736 50.671 34.9817 46.9606C33.9019 45.8755 32.1938 45.1229 30.4024 45.1229ZM34.2263 53.0286C33.2987 55.2796 30.0611 56.6007 25.3111 56.6817C25.3157 56.4248 25.2302 47.4398 30.4024 47.4398C31.4933 47.4398 32.651 47.8947 33.3516 48.5988C34.2774 49.5291 34.8984 51.3979 34.2263 53.0286Z" fill="#003E73"/>
</svg>
