<svg width="83" height="83" viewBox="0 0 83 83" fill="none" xmlns="http://www.w3.org/2000/svg">
<path d="M35.0697 57.0591L32.796 54.7853L35.0697 51.9821L37.3437 51.2346L40.1469 50.5494L44.2582 51.2346L46.6254 50.5494L51.6711 55.5951L50.0515 57.4639V58.8344L55.471 64.2227L57.6513 64.7522L72.6016 49.8019V47.7773L66.0608 41.8283L63.5691 42.8873L59.4578 38.7137C59.9146 37.8208 60.9528 35.8731 61.4511 35.2252C61.9495 34.5774 60.7452 33.3357 60.0807 32.7958L57.6513 31.986L56.4677 28.5599L54.5366 27.4386L53.6645 24.1994L51.2351 22.1437C51.4012 21.2716 51.7209 19.3031 51.6711 18.4061C51.6213 17.5091 49.9892 16.7449 49.1794 16.475L45.5664 17.2848C42.9293 16.9733 37.3935 16.3753 36.347 16.475C35.3004 16.5747 35.0594 17.8039 35.0697 18.4061C34.6649 18.3438 33.5687 18.3064 32.4225 18.6553C31.2763 19.0041 31.2389 20.2956 31.3635 20.8978L32.796 23.6387C32.1836 23.4622 30.7406 23.3272 29.8685 24.1994C28.9964 25.0715 29.2559 27.4697 29.4947 28.5599C28.9652 28.3419 27.6133 28.1987 26.4423 29.3697C25.2714 30.5407 25.6637 31.6018 26.0063 31.986L25.1342 32.7958C22.9167 32.7958 22.2999 34.9553 22.2687 36.0351L24.5736 38.7137L20.836 42.4513L18.095 41.143L11.4607 47.7773L27.9061 64.2227L35.0697 57.0591Z" fill="#E1F3F8"/>
<rect x="31.0709" y="22.7675" width="9.32121" height="4.37766" rx="1.90396" transform="rotate(45 31.0709 22.7675)" stroke="#003E73" stroke-width="2"/>
<rect x="27.9652" y="27.6483" width="7.77674" height="4.37766" rx="1.90396" transform="rotate(45 27.9652 27.6483)" stroke="#003E73" stroke-width="2"/>
<rect x="24.4991" y="32.0703" width="6.77798" height="4.37766" rx="1.90396" transform="rotate(45 24.4991 32.0703)" stroke="#003E73" stroke-width="2"/>
<rect x="33.5484" y="17.4761" width="11.4528" height="4.37766" rx="1.90396" transform="rotate(45 33.5484 17.4761)" stroke="#003E73" stroke-width="2"/>
<path d="M40.5023 23.1659L42.9688 20.6994L46.5836 17.0845C47.7177 15.9505 49.5564 15.9505 50.6905 17.0845L51.0933 17.4874C52.2274 18.6215 52.2274 20.4602 51.0933 21.5942L46.9695 25.7181" stroke="#003E73" stroke-width="2" stroke-linecap="round"/>
<path d="M46.5452 26.1159L48.5418 24.1192L49.2543 23.4067C50.3884 22.2727 52.2271 22.2727 53.3611 23.4067L53.764 23.8096C54.898 24.9437 54.8981 26.7824 53.764 27.9164L50.5655 31.1149" stroke="#003E73" stroke-width="2" stroke-linecap="round"/>
<path d="M50.526 31.0483L52.3036 29.2708L52.7745 28.7999C53.8744 27.7 55.6576 27.7 56.7574 28.7999V28.7999C57.8573 29.8997 57.8573 31.6829 56.7574 32.7828L54.09 35.4502" stroke="#003E73" stroke-width="2" stroke-linecap="round"/>
<path d="M54.5089 35.1756L56.2864 33.3981L56.7573 32.9272C57.8572 31.8273 59.6404 31.8273 60.7402 32.9272V32.9272C61.8401 34.027 61.8401 35.8102 60.7402 36.9101L58.0728 39.5775L46.5731 50.3272C44.7767 51.6752 43.2122 51.0833 41.1996 50.5801C39.296 50.1965 37.1287 50.3518 35.7003 51.7803L33.0468 54.575" stroke="#003E73" stroke-width="2" stroke-linecap="round"/>
<path d="M21.8649 58.9309L12.1984 49.2644C11.4173 48.4833 11.4173 47.217 12.1984 46.4359L16.9628 41.6715C17.7439 40.8905 19.0102 40.8905 19.7913 41.6715L33.9334 55.8136C34.7144 56.5947 34.7144 57.861 33.9334 58.6421L29.169 63.4065C28.3879 64.1876 27.1216 64.1876 26.3405 63.4065L22.0763 59.1423" stroke="#003E73" stroke-width="2" stroke-linecap="round"/>
<path d="M68.2344 54.3363L72.3819 50.1888C73.1629 49.4077 73.1629 48.1414 72.3819 47.3604L67.6174 42.5959C66.8364 41.8149 65.5701 41.8149 64.789 42.5959L50.6469 56.7381C49.8658 57.5191 49.8658 58.7854 50.6469 59.5665L55.4113 64.3309C56.1924 65.112 57.4587 65.112 58.2397 64.3309L68.0423 54.5283" stroke="#003E73" stroke-width="2" stroke-linecap="round"/>
<path d="M45.9923 17.492C43.3771 17.1124 37.8428 16.3657 36.628 16.4164C35.4132 16.467 35.215 17.8084 35.2677 18.4727L35.3674 19.3607" stroke="#003E73" stroke-width="2"/>
<path d="M24.8525 39.1074L21.0086 42.9513" stroke="#003E73" stroke-width="2"/>
<path d="M47.0912 50.3204L51.7789 55.0081" stroke="#003E73" stroke-width="2"/>
<path d="M59.1705 38.5448L63.8582 43.2326" stroke="#003E73" stroke-width="2"/>
</svg>
